M48
METRIC,LZ,000.000
;FILE_FORMAT=3:3
;TYPE=PLATED
;Layer: PTH_Through
;EasyEDA v6.4.31, 2022-02-03 12:49:45
;a9be7c87d83144a3bb2ccb21b8cae2d4,a012b36b664746af8e538b06cf3162c4,10
;Gerber Generator version 0.2
;Holesize 1 = 0.305 mm
T01C0.305
;Holesize 2 = 0.701 mm
T02C0.701
;Holesize 3 = 0.889 mm
T03C0.889
%
G05
G90
T01
X028448Y037211
X017653Y052832
X019050Y048322
X017780Y040640
X027178Y044450
X020320Y044450
X026035Y045720
X017780Y044450
X014732Y050800
X014351Y038481
X030226Y035433
X029210Y052070
X018542Y038227
T02
X027940Y032000G85X027940Y033000
X025400Y032000G85X025400Y033000
X022860Y032000G85X022860Y033000
X020320Y032000G85X020320Y033000
X017780Y032000G85X017780Y033000
X027940Y055775G85X027940Y057025
X025400Y055775G85X025400Y057025
X022860Y055775G85X022860Y057025
X020320Y055775G85X020320Y057025
X017780Y055775G85X017780Y057025
T03
X014097Y048260
X014097Y045720
X014097Y043180
X014097Y040640
X031623Y048260
X031623Y045720
X031623Y043180
X031623Y040640
M30
