G04 Layer: TopLayer*
G04 EasyEDA v6.4.31, 2022-02-03 12:49:45*
G04 a9be7c87d83144a3bb2ccb21b8cae2d4,a012b36b664746af8e538b06cf3162c4,10*
G04 Gerber Generator version 0.2*
G04 Scale: 100 percent, Rotated: No, Reflected: No *
G04 Dimensions in millimeters *
G04 leading zeros omitted , absolute positions ,4 integer and 5 decimal *
%FSLAX45Y45*%
%MOMM*%

%ADD11C,0.6000*%
%ADD12C,0.5950*%
%ADD13C,0.6096*%
%ADD15R,0.8640X0.8065*%
%ADD18R,1.3500X1.4100*%
%ADD21C,1.5748*%

%LPD*%
G36*
X3140913Y4930648D02*
G01*
X3137052Y4931410D01*
X3133750Y4933645D01*
X3074974Y4992370D01*
X3071215Y4995824D01*
X3067354Y4998770D01*
X3063240Y5001412D01*
X3058922Y5003647D01*
X3054400Y5005527D01*
X3049778Y5007000D01*
X3045002Y5008067D01*
X3040176Y5008676D01*
X3035096Y5008930D01*
X2540457Y5008930D01*
X2530297Y5008016D01*
X2520899Y5005476D01*
X2512060Y5001361D01*
X2504084Y4995773D01*
X2497226Y4988915D01*
X2491638Y4980940D01*
X2488285Y4973777D01*
X2485999Y4970627D01*
X2482646Y4968544D01*
X2478836Y4967884D01*
X2475026Y4968748D01*
X2471775Y4970983D01*
X2469642Y4974234D01*
X2468930Y4978044D01*
X2468930Y5109768D01*
X2468676Y5114848D01*
X2468067Y5119674D01*
X2467000Y5124348D01*
X2464917Y5130444D01*
X2464409Y5133695D01*
X2464409Y5156403D01*
X2463698Y5162753D01*
X2461768Y5168188D01*
X2458669Y5173116D01*
X2454605Y5177180D01*
X2449677Y5180279D01*
X2444242Y5182209D01*
X2437892Y5182920D01*
X2374036Y5182920D01*
X2367737Y5182209D01*
X2362250Y5180888D01*
X2358898Y5181447D01*
X2356764Y5182209D01*
X2350414Y5182920D01*
X2301595Y5182920D01*
X2295245Y5182209D01*
X2289352Y5180126D01*
X2286000Y5179568D01*
X2282647Y5180126D01*
X2276754Y5182209D01*
X2270404Y5182920D01*
X2221585Y5182920D01*
X2215235Y5182209D01*
X2209749Y5180888D01*
X2206396Y5181447D01*
X2204262Y5182209D01*
X2197912Y5182920D01*
X2134057Y5182920D01*
X2127758Y5182209D01*
X2122271Y5180279D01*
X2117394Y5177231D01*
X2113280Y5173116D01*
X2110232Y5168239D01*
X2108301Y5162753D01*
X2107590Y5156454D01*
X2107590Y5141874D01*
X2106828Y5137962D01*
X2104644Y5134660D01*
X1992630Y5022697D01*
X1989175Y5018938D01*
X1986229Y5015026D01*
X1983587Y5010912D01*
X1980438Y5004460D01*
X1978253Y5001158D01*
X1974951Y4998974D01*
X1971090Y4998212D01*
X1967179Y4998974D01*
X1963877Y5001158D01*
X1961692Y5004460D01*
X1960930Y5008372D01*
X1960930Y5063540D01*
X1961692Y5067401D01*
X1963877Y5070703D01*
X1968398Y5075224D01*
X1971497Y5080152D01*
X1973376Y5085588D01*
X1974088Y5091938D01*
X1974088Y5171440D01*
X1973376Y5177739D01*
X1971497Y5183225D01*
X1968398Y5188102D01*
X1964334Y5192217D01*
X1959406Y5195265D01*
X1953361Y5197398D01*
X1949805Y5199532D01*
X1947367Y5202936D01*
X1946554Y5207000D01*
X1947367Y5211064D01*
X1949805Y5214467D01*
X1953361Y5216601D01*
X1959406Y5218734D01*
X1964334Y5221782D01*
X1968398Y5225897D01*
X1971497Y5230774D01*
X1973376Y5236260D01*
X1974088Y5242560D01*
X1974088Y5288280D01*
X1974900Y5292191D01*
X1977085Y5295493D01*
X1980387Y5297678D01*
X1984248Y5298440D01*
X1988159Y5297678D01*
X1991461Y5295493D01*
X2029307Y5257647D01*
X2033066Y5254193D01*
X2036927Y5251196D01*
X2041042Y5248605D01*
X2045360Y5246319D01*
X2049881Y5244490D01*
X2054504Y5243017D01*
X2059279Y5241950D01*
X2064105Y5241340D01*
X2069236Y5241086D01*
X2108911Y5241086D01*
X2112772Y5240324D01*
X2116074Y5238140D01*
X2117394Y5236819D01*
X2122322Y5233720D01*
X2127758Y5231790D01*
X2134108Y5231079D01*
X2197963Y5231079D01*
X2204262Y5231790D01*
X2209749Y5233111D01*
X2213102Y5232552D01*
X2215235Y5231790D01*
X2221585Y5231079D01*
X2270404Y5231079D01*
X2276754Y5231790D01*
X2282647Y5233873D01*
X2286000Y5234432D01*
X2289352Y5233873D01*
X2295245Y5231790D01*
X2301595Y5231079D01*
X2350414Y5231079D01*
X2356764Y5231790D01*
X2362250Y5233111D01*
X2365603Y5232552D01*
X2367737Y5231790D01*
X2374087Y5231079D01*
X2437942Y5231079D01*
X2444242Y5231790D01*
X2449728Y5233720D01*
X2454605Y5236768D01*
X2455926Y5238140D01*
X2459228Y5240324D01*
X2463139Y5241086D01*
X2502763Y5241086D01*
X2507894Y5241340D01*
X2512720Y5241950D01*
X2517495Y5243017D01*
X2522118Y5244490D01*
X2526639Y5246319D01*
X2530957Y5248605D01*
X2535072Y5251196D01*
X2538933Y5254193D01*
X2542692Y5257647D01*
X2772156Y5487060D01*
X2775762Y5489397D01*
X2779979Y5490006D01*
X2794000Y5489092D01*
X2807665Y5490006D01*
X2821076Y5492699D01*
X2834030Y5497068D01*
X2846324Y5503113D01*
X2857703Y5510733D01*
X2867964Y5519775D01*
X2877007Y5530037D01*
X2884627Y5541416D01*
X2890672Y5553710D01*
X2895041Y5566664D01*
X2897733Y5580075D01*
X2898648Y5594096D01*
X2898648Y5685942D01*
X2897733Y5699912D01*
X2895041Y5713323D01*
X2890672Y5726277D01*
X2884627Y5738571D01*
X2877007Y5749950D01*
X2867152Y5761075D01*
X2865170Y5764428D01*
X2864561Y5768238D01*
X2865475Y5771997D01*
X2867710Y5775147D01*
X2870962Y5777280D01*
X2874721Y5777992D01*
X3240532Y5777992D01*
X3244443Y5777230D01*
X3247694Y5774994D01*
X3249930Y5771743D01*
X3250692Y5767832D01*
X3250692Y4940808D01*
X3249930Y4936896D01*
X3247694Y4933645D01*
X3244443Y4931410D01*
X3240532Y4930648D01*
G37*

%LPD*%
G36*
X2957322Y4373930D02*
G01*
X2953969Y4374489D01*
X2951022Y4376115D01*
X2948736Y4378604D01*
X2873806Y4496663D01*
X2872333Y4500727D01*
X2872689Y4505045D01*
X2874772Y4508804D01*
X2878175Y4511395D01*
X2882392Y4512310D01*
X2893618Y4512310D01*
X2893618Y4567123D01*
X2834741Y4567123D01*
X2831388Y4567682D01*
X2828442Y4569307D01*
X2826156Y4571796D01*
X2724251Y4732426D01*
X2723083Y4735068D01*
X2722676Y4737912D01*
X2722676Y4786579D01*
X2721762Y4796637D01*
X2719273Y4806035D01*
X2715158Y4814824D01*
X2709621Y4822748D01*
X2702763Y4829606D01*
X2694787Y4835144D01*
X2685999Y4839258D01*
X2676652Y4841798D01*
X2667000Y4842611D01*
X2657348Y4841798D01*
X2648000Y4839258D01*
X2639212Y4835144D01*
X2631236Y4829606D01*
X2624378Y4822748D01*
X2618841Y4814824D01*
X2615285Y4807204D01*
X2612999Y4804054D01*
X2609646Y4801971D01*
X2605836Y4801311D01*
X2602026Y4802174D01*
X2598775Y4804359D01*
X2596642Y4807661D01*
X2595930Y4811471D01*
X2595930Y4886909D01*
X2596692Y4890820D01*
X2598877Y4894122D01*
X2602179Y4896307D01*
X2606090Y4897069D01*
X2830322Y4897069D01*
X2834487Y4896205D01*
X2837891Y4893716D01*
X2840024Y4890008D01*
X2840278Y4884623D01*
X2840278Y4744770D01*
X2840990Y4738471D01*
X2842920Y4732985D01*
X2846019Y4728108D01*
X2850083Y4723993D01*
X2855976Y4720285D01*
X2858922Y4717491D01*
X2860497Y4713732D01*
X2860497Y4709668D01*
X2858922Y4705908D01*
X2855976Y4703114D01*
X2850083Y4699406D01*
X2846019Y4695291D01*
X2842920Y4690414D01*
X2840990Y4684928D01*
X2840278Y4678629D01*
X2840278Y4650282D01*
X2893618Y4650282D01*
X2893618Y4708144D01*
X2894380Y4712004D01*
X2896565Y4715306D01*
X2899867Y4717542D01*
X2903778Y4718304D01*
X2963621Y4718304D01*
X2967532Y4717542D01*
X2970834Y4715306D01*
X2973019Y4712004D01*
X2973781Y4708144D01*
X2973781Y4650282D01*
X3027121Y4650282D01*
X3027121Y4678629D01*
X3026410Y4684928D01*
X3024479Y4690414D01*
X3021380Y4695291D01*
X3017316Y4699406D01*
X3011424Y4703114D01*
X3008477Y4705908D01*
X3006902Y4709668D01*
X3006902Y4713732D01*
X3008477Y4717491D01*
X3011424Y4720285D01*
X3017316Y4723993D01*
X3021380Y4728108D01*
X3024479Y4732985D01*
X3026410Y4738471D01*
X3027121Y4744770D01*
X3027121Y4759909D01*
X3027883Y4763820D01*
X3030067Y4767122D01*
X3033369Y4769307D01*
X3037281Y4770069D01*
X3047492Y4770069D01*
X3051403Y4769307D01*
X3054654Y4767122D01*
X3056890Y4763820D01*
X3057652Y4759909D01*
X3057652Y4747818D01*
X3058363Y4741519D01*
X3060293Y4736033D01*
X3063341Y4731156D01*
X3067456Y4727041D01*
X3072333Y4723993D01*
X3077819Y4722063D01*
X3084118Y4721352D01*
X3240532Y4721352D01*
X3244443Y4720590D01*
X3247694Y4718354D01*
X3249930Y4715103D01*
X3250692Y4711192D01*
X3250692Y4655769D01*
X3249980Y4651959D01*
X3247847Y4648758D01*
X3244748Y4646523D01*
X3240989Y4645609D01*
X3237179Y4646168D01*
X3233826Y4648149D01*
X3226003Y4655007D01*
X3214624Y4662627D01*
X3208020Y4665878D01*
X3208020Y4617720D01*
X3240532Y4617720D01*
X3244443Y4616958D01*
X3247694Y4614722D01*
X3249930Y4611471D01*
X3250692Y4607560D01*
X3250692Y4536440D01*
X3249930Y4532528D01*
X3247694Y4529277D01*
X3244443Y4527042D01*
X3240532Y4526280D01*
X3208020Y4526280D01*
X3208020Y4478121D01*
X3214624Y4481372D01*
X3226003Y4488992D01*
X3233826Y4495850D01*
X3237179Y4497832D01*
X3240989Y4498390D01*
X3244748Y4497476D01*
X3247847Y4495241D01*
X3249980Y4492040D01*
X3250692Y4488230D01*
X3250692Y4401769D01*
X3249980Y4397959D01*
X3247847Y4394758D01*
X3244748Y4392523D01*
X3240989Y4391609D01*
X3237179Y4392168D01*
X3233826Y4394149D01*
X3226003Y4401007D01*
X3214624Y4408627D01*
X3202330Y4414672D01*
X3189376Y4419041D01*
X3175965Y4421733D01*
X3162300Y4422648D01*
X3148634Y4421733D01*
X3135223Y4419041D01*
X3122269Y4414672D01*
X3109976Y4408627D01*
X3098596Y4401007D01*
X3088335Y4391964D01*
X3079292Y4381703D01*
X3077108Y4378401D01*
X3074822Y4376013D01*
X3071926Y4374438D01*
X3068675Y4373930D01*
G37*

%LPC*%
G36*
X3116580Y4478121D02*
G01*
X3116580Y4526280D01*
X3068421Y4526280D01*
X3071672Y4519676D01*
X3079292Y4508296D01*
X3088335Y4498035D01*
X3098596Y4488992D01*
X3109976Y4481372D01*
G37*
G36*
X2973781Y4512310D02*
G01*
X3000654Y4512310D01*
X3006953Y4513021D01*
X3012389Y4514900D01*
X3017316Y4517999D01*
X3021380Y4522063D01*
X3024479Y4526991D01*
X3026410Y4532426D01*
X3027121Y4538776D01*
X3027121Y4567123D01*
X2973781Y4567123D01*
G37*
G36*
X3068421Y4617720D02*
G01*
X3116580Y4617720D01*
X3116580Y4665878D01*
X3109976Y4662627D01*
X3098596Y4655007D01*
X3088335Y4645964D01*
X3079292Y4635703D01*
X3071672Y4624324D01*
G37*

%LPD*%
G36*
X1840128Y4085437D02*
G01*
X1836064Y4086148D01*
X1832660Y4088434D01*
X1822551Y4098544D01*
X1821180Y4100220D01*
X1814220Y4107179D01*
X1806193Y4112818D01*
X1797253Y4116933D01*
X1787804Y4119473D01*
X1778000Y4120337D01*
X1768195Y4119473D01*
X1758746Y4116933D01*
X1749806Y4112818D01*
X1741779Y4107179D01*
X1724253Y4089298D01*
X1720951Y4087114D01*
X1717090Y4086351D01*
X1713179Y4087114D01*
X1709877Y4089298D01*
X1707692Y4092600D01*
X1706930Y4096512D01*
X1706930Y5179618D01*
X1707692Y5183530D01*
X1709877Y5186832D01*
X1747367Y5224322D01*
X1750669Y5226507D01*
X1754581Y5227269D01*
X1760677Y5227269D01*
X1765300Y5226862D01*
X1770532Y5227269D01*
X1836420Y5226913D01*
X1840280Y5226100D01*
X1843532Y5223916D01*
X1845665Y5221782D01*
X1850593Y5218734D01*
X1856638Y5216601D01*
X1860194Y5214467D01*
X1862632Y5211064D01*
X1863445Y5207000D01*
X1862632Y5202936D01*
X1860194Y5199532D01*
X1856638Y5197398D01*
X1850593Y5195265D01*
X1845665Y5192217D01*
X1841601Y5188102D01*
X1838502Y5183225D01*
X1836623Y5177739D01*
X1835912Y5171440D01*
X1835912Y5091938D01*
X1836623Y5085588D01*
X1838502Y5080152D01*
X1841601Y5075224D01*
X1846122Y5070703D01*
X1848307Y5067401D01*
X1849069Y5063540D01*
X1849069Y4837734D01*
X1848662Y4832197D01*
X1849069Y4826711D01*
X1849069Y4172051D01*
X1849323Y4168749D01*
X1849323Y4103420D01*
X1849932Y4096512D01*
X1849475Y4092397D01*
X1847443Y4088841D01*
X1844141Y4086402D01*
G37*

%LPD*%
G36*
X1887778Y3738930D02*
G01*
X1883867Y3739692D01*
X1880565Y3741877D01*
X1878380Y3745179D01*
X1877618Y3749090D01*
X1877618Y3794760D01*
X1829866Y3794760D01*
X1825955Y3795522D01*
X1822704Y3797706D01*
X1820468Y3801008D01*
X1819706Y3804920D01*
X1819706Y3840479D01*
X1820468Y3844391D01*
X1822704Y3847693D01*
X1825955Y3849878D01*
X1829866Y3850640D01*
X1877618Y3850640D01*
X1877618Y3873246D01*
X1878584Y3877513D01*
X1881225Y3881018D01*
X1885137Y3883050D01*
X1889556Y3883253D01*
X1900123Y3881323D01*
X1909876Y3881323D01*
X1918716Y3882898D01*
X1923084Y3882694D01*
X1926996Y3880662D01*
X1929688Y3877208D01*
X1930654Y3872890D01*
X1930654Y3850640D01*
X1972919Y3850640D01*
X1976831Y3849878D01*
X1980133Y3847693D01*
X1982317Y3844391D01*
X1983079Y3840479D01*
X1983079Y3825595D01*
X1982520Y3822242D01*
X1981301Y3818737D01*
X1980590Y3812438D01*
X1980590Y3804920D01*
X1979828Y3801008D01*
X1977643Y3797706D01*
X1974342Y3795522D01*
X1970430Y3794760D01*
X1930654Y3794760D01*
X1930654Y3749090D01*
X1929841Y3745179D01*
X1927656Y3741877D01*
X1924354Y3739692D01*
X1920493Y3738930D01*
G37*

%LPD*%
G36*
X2859125Y3099308D02*
G01*
X2854909Y3100222D01*
X2851454Y3102762D01*
X2849372Y3106521D01*
X2849067Y3110788D01*
X2850489Y3114852D01*
X2853486Y3117900D01*
X2857703Y3120745D01*
X2867964Y3129737D01*
X2877007Y3140049D01*
X2884627Y3151428D01*
X2890672Y3163722D01*
X2895041Y3176676D01*
X2897733Y3190087D01*
X2898648Y3204057D01*
X2898648Y3295904D01*
X2897733Y3309924D01*
X2895041Y3323336D01*
X2890672Y3336290D01*
X2884627Y3348583D01*
X2877007Y3359962D01*
X2867964Y3370224D01*
X2857703Y3379266D01*
X2846324Y3386886D01*
X2834030Y3392932D01*
X2821076Y3397300D01*
X2807665Y3399993D01*
X2794000Y3400907D01*
X2779979Y3399993D01*
X2775762Y3400602D01*
X2772156Y3402939D01*
X2565298Y3609746D01*
X2563114Y3613048D01*
X2562352Y3616909D01*
X2563114Y3620820D01*
X2565298Y3624122D01*
X2568600Y3626307D01*
X2572512Y3627069D01*
X2627833Y3627069D01*
X2632913Y3627323D01*
X2637739Y3627932D01*
X2642514Y3628999D01*
X2647137Y3630472D01*
X2651658Y3632352D01*
X2655976Y3634587D01*
X2660091Y3637229D01*
X2663952Y3640175D01*
X2667711Y3643629D01*
X2676855Y3652774D01*
X2680157Y3654958D01*
X2684068Y3655720D01*
X2709621Y3655720D01*
X2715971Y3656431D01*
X2721406Y3658362D01*
X2726334Y3661460D01*
X2730398Y3664407D01*
X2734259Y3665169D01*
X2839313Y3665169D01*
X2844800Y3664762D01*
X2854604Y3665626D01*
X2864053Y3668166D01*
X2872994Y3672281D01*
X2881020Y3677920D01*
X2887980Y3684879D01*
X2893618Y3692906D01*
X2897733Y3701846D01*
X2900273Y3711295D01*
X2901137Y3721100D01*
X2900273Y3730904D01*
X2897733Y3740353D01*
X2893618Y3749294D01*
X2887980Y3757320D01*
X2881020Y3764279D01*
X2872994Y3769918D01*
X2864053Y3774033D01*
X2854604Y3776573D01*
X2844800Y3777437D01*
X2839313Y3777030D01*
X2736037Y3777030D01*
X2732125Y3777792D01*
X2728823Y3779977D01*
X2726334Y3782517D01*
X2721406Y3785565D01*
X2715361Y3787698D01*
X2711805Y3789832D01*
X2709367Y3793236D01*
X2708554Y3797300D01*
X2709367Y3801364D01*
X2711805Y3804767D01*
X2715361Y3806901D01*
X2721406Y3809034D01*
X2726334Y3812082D01*
X2730398Y3816197D01*
X2733497Y3821074D01*
X2735376Y3826560D01*
X2736088Y3832860D01*
X2736088Y3846118D01*
X2694940Y3846118D01*
X2694940Y3798366D01*
X2694178Y3794455D01*
X2691993Y3791204D01*
X2688691Y3788968D01*
X2684780Y3788206D01*
X2649220Y3788206D01*
X2645308Y3788968D01*
X2642006Y3791204D01*
X2639822Y3794455D01*
X2639060Y3798366D01*
X2639060Y3846118D01*
X2597912Y3846118D01*
X2597912Y3832860D01*
X2598623Y3826560D01*
X2600502Y3821074D01*
X2603601Y3816197D01*
X2607665Y3812082D01*
X2612593Y3809034D01*
X2618638Y3806901D01*
X2622194Y3804767D01*
X2624632Y3801364D01*
X2625445Y3797300D01*
X2624632Y3793236D01*
X2622194Y3789832D01*
X2618638Y3787698D01*
X2612593Y3785565D01*
X2607665Y3782517D01*
X2603601Y3778402D01*
X2600502Y3773525D01*
X2598623Y3768039D01*
X2597912Y3761740D01*
X2597912Y3749090D01*
X2597099Y3745179D01*
X2594914Y3741877D01*
X2591612Y3739692D01*
X2587752Y3738930D01*
X2348484Y3738930D01*
X2344623Y3739692D01*
X2341321Y3741877D01*
X2339086Y3745179D01*
X2338324Y3749090D01*
X2339086Y3752951D01*
X2341321Y3756253D01*
X2579370Y3994302D01*
X2582824Y3998061D01*
X2585770Y4001973D01*
X2588412Y4006087D01*
X2590647Y4010406D01*
X2592527Y4014876D01*
X2594000Y4019550D01*
X2595067Y4024325D01*
X2595676Y4029151D01*
X2595930Y4034231D01*
X2595930Y4078528D01*
X2596642Y4082338D01*
X2598775Y4085640D01*
X2602026Y4087825D01*
X2605836Y4088688D01*
X2609646Y4088028D01*
X2612999Y4085945D01*
X2615285Y4082796D01*
X2618841Y4075176D01*
X2624378Y4067251D01*
X2631236Y4060393D01*
X2639212Y4054856D01*
X2645765Y4051757D01*
X2645765Y4116070D01*
X2606090Y4116070D01*
X2602179Y4116882D01*
X2598877Y4119067D01*
X2596692Y4122369D01*
X2595930Y4126229D01*
X2595930Y4171187D01*
X2595676Y4174490D01*
X2595676Y4217009D01*
X2596438Y4220870D01*
X2598623Y4224172D01*
X2601925Y4226407D01*
X2605836Y4227169D01*
X2645765Y4227169D01*
X2645765Y4291482D01*
X2639212Y4288434D01*
X2631236Y4282846D01*
X2624378Y4275988D01*
X2618841Y4268063D01*
X2614726Y4259275D01*
X2613304Y4253992D01*
X2611272Y4250080D01*
X2607818Y4247388D01*
X2603500Y4246422D01*
X2599182Y4247388D01*
X2595727Y4250080D01*
X2593695Y4253992D01*
X2592273Y4259275D01*
X2588158Y4268063D01*
X2582621Y4275988D01*
X2575763Y4282846D01*
X2567787Y4288434D01*
X2558999Y4292498D01*
X2549652Y4295038D01*
X2540000Y4295851D01*
X2530348Y4295038D01*
X2521000Y4292498D01*
X2512212Y4288434D01*
X2504236Y4282846D01*
X2497378Y4275988D01*
X2491841Y4268063D01*
X2487726Y4259275D01*
X2486304Y4253992D01*
X2484272Y4250080D01*
X2480818Y4247388D01*
X2476500Y4246422D01*
X2472182Y4247388D01*
X2468727Y4250080D01*
X2466695Y4253992D01*
X2465273Y4259275D01*
X2461158Y4268063D01*
X2455621Y4275988D01*
X2448763Y4282846D01*
X2440787Y4288434D01*
X2431999Y4292498D01*
X2422652Y4295038D01*
X2413000Y4295851D01*
X2403348Y4295038D01*
X2394000Y4292498D01*
X2385212Y4288434D01*
X2377236Y4282846D01*
X2370378Y4275988D01*
X2364841Y4268063D01*
X2360726Y4259275D01*
X2359304Y4253992D01*
X2357272Y4250080D01*
X2353818Y4247388D01*
X2349500Y4246422D01*
X2345182Y4247388D01*
X2341727Y4250080D01*
X2339695Y4253992D01*
X2338273Y4259275D01*
X2334158Y4268063D01*
X2328621Y4275988D01*
X2321763Y4282846D01*
X2313787Y4288434D01*
X2304999Y4292498D01*
X2295652Y4295038D01*
X2286000Y4295851D01*
X2276348Y4295038D01*
X2267000Y4292498D01*
X2258212Y4288434D01*
X2250236Y4282846D01*
X2243378Y4275988D01*
X2237841Y4268063D01*
X2233726Y4259275D01*
X2232304Y4253992D01*
X2230272Y4250080D01*
X2226818Y4247388D01*
X2222500Y4246422D01*
X2218182Y4247388D01*
X2214727Y4250080D01*
X2212695Y4253992D01*
X2211273Y4259275D01*
X2207158Y4268063D01*
X2201621Y4275988D01*
X2194763Y4282846D01*
X2186787Y4288434D01*
X2177999Y4292498D01*
X2168652Y4295038D01*
X2159000Y4295851D01*
X2149348Y4295038D01*
X2140000Y4292498D01*
X2131212Y4288434D01*
X2123236Y4282846D01*
X2116378Y4275988D01*
X2110841Y4268063D01*
X2106726Y4259275D01*
X2105304Y4253992D01*
X2103272Y4250080D01*
X2099818Y4247388D01*
X2095500Y4246422D01*
X2091182Y4247388D01*
X2087727Y4250080D01*
X2085695Y4253992D01*
X2084273Y4259275D01*
X2080158Y4268063D01*
X2074621Y4275988D01*
X2067763Y4282846D01*
X2059787Y4288434D01*
X2050999Y4292498D01*
X2041652Y4295038D01*
X2032000Y4295851D01*
X2022348Y4295038D01*
X2013000Y4292498D01*
X2004212Y4288434D01*
X1996236Y4282846D01*
X1989378Y4275988D01*
X1983841Y4268063D01*
X1980285Y4260443D01*
X1977999Y4257294D01*
X1974646Y4255211D01*
X1970836Y4254550D01*
X1967026Y4255414D01*
X1963775Y4257649D01*
X1961642Y4260900D01*
X1960930Y4264710D01*
X1960930Y4418787D01*
X1961642Y4422648D01*
X1963775Y4425899D01*
X1967026Y4428134D01*
X1970836Y4428947D01*
X1974646Y4428286D01*
X1977999Y4426254D01*
X1980285Y4423105D01*
X1983181Y4416806D01*
X1988820Y4408779D01*
X1995779Y4401820D01*
X2003806Y4396181D01*
X2012746Y4392066D01*
X2022195Y4389526D01*
X2032000Y4388662D01*
X2041804Y4389526D01*
X2051253Y4392066D01*
X2060193Y4396181D01*
X2068220Y4401820D01*
X2075180Y4408779D01*
X2080818Y4416806D01*
X2084933Y4425746D01*
X2087473Y4435195D01*
X2088337Y4445000D01*
X2087930Y4450486D01*
X2087930Y4625289D01*
X2088642Y4629099D01*
X2090775Y4632350D01*
X2094026Y4634585D01*
X2097836Y4635449D01*
X2101646Y4634788D01*
X2104999Y4632706D01*
X2107285Y4629556D01*
X2110841Y4621936D01*
X2116378Y4614011D01*
X2123236Y4607153D01*
X2131212Y4601565D01*
X2140000Y4597501D01*
X2149348Y4594961D01*
X2159000Y4594148D01*
X2168652Y4594961D01*
X2177999Y4597501D01*
X2186787Y4601565D01*
X2194763Y4607153D01*
X2201621Y4614011D01*
X2207158Y4621936D01*
X2211273Y4630724D01*
X2212695Y4636008D01*
X2214727Y4639919D01*
X2218182Y4642612D01*
X2222500Y4643577D01*
X2226818Y4642612D01*
X2230272Y4639919D01*
X2232304Y4636008D01*
X2233726Y4630724D01*
X2237841Y4621936D01*
X2243378Y4614011D01*
X2250236Y4607153D01*
X2258212Y4601565D01*
X2267000Y4597501D01*
X2276348Y4594961D01*
X2286000Y4594148D01*
X2295652Y4594961D01*
X2304999Y4597501D01*
X2313787Y4601565D01*
X2321763Y4607153D01*
X2328621Y4614011D01*
X2334158Y4621936D01*
X2338273Y4630724D01*
X2339695Y4636008D01*
X2341727Y4639919D01*
X2345182Y4642612D01*
X2349500Y4643577D01*
X2353818Y4642612D01*
X2357272Y4639919D01*
X2359304Y4636008D01*
X2360726Y4630724D01*
X2364841Y4621936D01*
X2370378Y4614011D01*
X2377236Y4607153D01*
X2385212Y4601565D01*
X2394000Y4597501D01*
X2403348Y4594961D01*
X2413000Y4594148D01*
X2422652Y4594961D01*
X2431999Y4597501D01*
X2440787Y4601565D01*
X2448763Y4607153D01*
X2455621Y4614011D01*
X2461158Y4621936D01*
X2465273Y4630724D01*
X2466695Y4636008D01*
X2468727Y4639919D01*
X2472182Y4642612D01*
X2476500Y4643577D01*
X2480818Y4642612D01*
X2484272Y4639919D01*
X2486304Y4636008D01*
X2487726Y4630724D01*
X2491841Y4621936D01*
X2497378Y4614011D01*
X2504236Y4607153D01*
X2512212Y4601565D01*
X2521000Y4597501D01*
X2530348Y4594961D01*
X2540000Y4594148D01*
X2549652Y4594961D01*
X2558999Y4597501D01*
X2567787Y4601565D01*
X2575763Y4607153D01*
X2582621Y4614011D01*
X2588158Y4621936D01*
X2592273Y4630724D01*
X2593695Y4636008D01*
X2595727Y4639919D01*
X2599182Y4642612D01*
X2603500Y4643577D01*
X2607818Y4642612D01*
X2611272Y4639919D01*
X2613304Y4636008D01*
X2614726Y4630724D01*
X2618841Y4621936D01*
X2624378Y4614011D01*
X2631236Y4607153D01*
X2639212Y4601565D01*
X2648000Y4597501D01*
X2657348Y4594961D01*
X2667000Y4594148D01*
X2672740Y4594656D01*
X2676448Y4594301D01*
X2679700Y4592675D01*
X2682240Y4589932D01*
X2728671Y4516780D01*
X2730144Y4512564D01*
X2729687Y4508093D01*
X2727350Y4504283D01*
X2723642Y4501845D01*
X2719171Y4501235D01*
X2717800Y4501337D01*
X2707995Y4500473D01*
X2698546Y4497933D01*
X2689606Y4493818D01*
X2681579Y4488180D01*
X2674620Y4481220D01*
X2668981Y4473194D01*
X2664866Y4464253D01*
X2662326Y4454804D01*
X2661462Y4445000D01*
X2662326Y4435195D01*
X2664866Y4425746D01*
X2668422Y4417974D01*
X2719120Y4294124D01*
X2719882Y4289856D01*
X2718765Y4285640D01*
X2716022Y4282287D01*
X2712161Y4280408D01*
X2707792Y4280255D01*
X2703830Y4281982D01*
X2694787Y4288434D01*
X2688234Y4291482D01*
X2688234Y4227169D01*
X2722676Y4227169D01*
X2722676Y4233824D01*
X2723438Y4237685D01*
X2725623Y4240987D01*
X2728925Y4243171D01*
X2732836Y4243984D01*
X2736748Y4243171D01*
X2740050Y4240936D01*
X2742234Y4237634D01*
X2780182Y4144822D01*
X2784856Y4135780D01*
X2790748Y4128058D01*
X2797911Y4121404D01*
X2806141Y4116120D01*
X2814116Y4112666D01*
X3061004Y4026814D01*
X3064357Y4024833D01*
X3066745Y4021683D01*
X3071672Y4011676D01*
X3079292Y4000296D01*
X3088335Y3990035D01*
X3098596Y3980992D01*
X3109976Y3973372D01*
X3122269Y3967327D01*
X3135223Y3962958D01*
X3148634Y3960266D01*
X3162300Y3959351D01*
X3175965Y3960266D01*
X3189376Y3962958D01*
X3202330Y3967327D01*
X3214624Y3973372D01*
X3226003Y3980992D01*
X3233826Y3987850D01*
X3237179Y3989832D01*
X3240989Y3990390D01*
X3244748Y3989476D01*
X3247847Y3987241D01*
X3249980Y3984040D01*
X3250692Y3980230D01*
X3250692Y3109468D01*
X3249930Y3105556D01*
X3247694Y3102305D01*
X3244443Y3100070D01*
X3240532Y3099308D01*
G37*

%LPC*%
G36*
X2694940Y3899154D02*
G01*
X2736088Y3899154D01*
X2736088Y3912362D01*
X2735376Y3918712D01*
X2733497Y3924147D01*
X2730398Y3929075D01*
X2726334Y3933139D01*
X2721406Y3936237D01*
X2715971Y3938168D01*
X2709621Y3938879D01*
X2694940Y3938879D01*
G37*
G36*
X2597912Y3899154D02*
G01*
X2639060Y3899154D01*
X2639060Y3938879D01*
X2624378Y3938879D01*
X2618028Y3938168D01*
X2612593Y3936237D01*
X2607665Y3933139D01*
X2603601Y3929075D01*
X2600502Y3924147D01*
X2598623Y3918712D01*
X2597912Y3912362D01*
G37*
G36*
X2688234Y4051757D02*
G01*
X2694787Y4054856D01*
X2702763Y4060393D01*
X2709621Y4067251D01*
X2715158Y4075176D01*
X2719273Y4083964D01*
X2721762Y4093362D01*
X2722676Y4103420D01*
X2722676Y4116070D01*
X2688234Y4116070D01*
G37*

%LPD*%
G36*
X1331468Y3099308D02*
G01*
X1327556Y3100070D01*
X1324305Y3102305D01*
X1322070Y3105556D01*
X1321308Y3109468D01*
X1321308Y3980230D01*
X1322019Y3984040D01*
X1324152Y3987241D01*
X1327251Y3989476D01*
X1331010Y3990390D01*
X1334820Y3989832D01*
X1338173Y3987850D01*
X1345996Y3980992D01*
X1357376Y3973372D01*
X1369669Y3967327D01*
X1382623Y3962958D01*
X1396034Y3960266D01*
X1409700Y3959351D01*
X1423365Y3960266D01*
X1436776Y3962958D01*
X1449730Y3967327D01*
X1462024Y3973372D01*
X1473403Y3980992D01*
X1483664Y3990035D01*
X1492707Y4000296D01*
X1500327Y4011676D01*
X1506372Y4023969D01*
X1510741Y4036923D01*
X1513433Y4050334D01*
X1514348Y4064000D01*
X1513433Y4077665D01*
X1510741Y4091076D01*
X1506372Y4104030D01*
X1500327Y4116324D01*
X1492707Y4127703D01*
X1483664Y4137964D01*
X1473403Y4147007D01*
X1462024Y4154627D01*
X1449730Y4160672D01*
X1436776Y4165041D01*
X1423365Y4167733D01*
X1409700Y4168648D01*
X1396034Y4167733D01*
X1382623Y4165041D01*
X1369669Y4160672D01*
X1357376Y4154627D01*
X1345996Y4147007D01*
X1338173Y4140149D01*
X1334820Y4138168D01*
X1331010Y4137609D01*
X1327251Y4138523D01*
X1324152Y4140758D01*
X1322019Y4143959D01*
X1321308Y4147769D01*
X1321308Y4234230D01*
X1322019Y4238040D01*
X1324152Y4241241D01*
X1327251Y4243476D01*
X1331010Y4244390D01*
X1334820Y4243832D01*
X1338173Y4241850D01*
X1345996Y4234992D01*
X1357376Y4227372D01*
X1369669Y4221327D01*
X1382623Y4216958D01*
X1396034Y4214266D01*
X1409700Y4213352D01*
X1423365Y4214266D01*
X1436776Y4216958D01*
X1449730Y4221327D01*
X1462024Y4227372D01*
X1473403Y4234992D01*
X1483664Y4244035D01*
X1492707Y4254296D01*
X1500327Y4265676D01*
X1506372Y4277969D01*
X1510741Y4290923D01*
X1513433Y4304334D01*
X1514348Y4318000D01*
X1513433Y4331665D01*
X1510741Y4345076D01*
X1506372Y4358030D01*
X1500327Y4370324D01*
X1492707Y4381703D01*
X1483664Y4391964D01*
X1473403Y4401007D01*
X1462024Y4408627D01*
X1449730Y4414672D01*
X1436776Y4419041D01*
X1423365Y4421733D01*
X1409700Y4422648D01*
X1396034Y4421733D01*
X1382623Y4419041D01*
X1369669Y4414672D01*
X1357376Y4408627D01*
X1345996Y4401007D01*
X1338173Y4394149D01*
X1334820Y4392168D01*
X1331010Y4391609D01*
X1327251Y4392523D01*
X1324152Y4394758D01*
X1322019Y4397959D01*
X1321308Y4401769D01*
X1321308Y4488230D01*
X1322019Y4492040D01*
X1324152Y4495241D01*
X1327251Y4497476D01*
X1331010Y4498390D01*
X1334820Y4497832D01*
X1338173Y4495850D01*
X1345996Y4488992D01*
X1357376Y4481372D01*
X1363980Y4478121D01*
X1363980Y4526280D01*
X1331468Y4526280D01*
X1327556Y4527042D01*
X1324305Y4529277D01*
X1322070Y4532528D01*
X1321308Y4536440D01*
X1321308Y4607560D01*
X1322070Y4611471D01*
X1324305Y4614722D01*
X1327556Y4616958D01*
X1331468Y4617720D01*
X1363980Y4617720D01*
X1363980Y4665878D01*
X1357376Y4662627D01*
X1345996Y4655007D01*
X1338173Y4648149D01*
X1334820Y4646168D01*
X1331010Y4645609D01*
X1327251Y4646523D01*
X1324152Y4648758D01*
X1322019Y4651959D01*
X1321308Y4655769D01*
X1321308Y4711192D01*
X1322070Y4715103D01*
X1324305Y4718354D01*
X1327556Y4720590D01*
X1331468Y4721352D01*
X1487881Y4721352D01*
X1494180Y4722063D01*
X1499666Y4723993D01*
X1504543Y4727041D01*
X1508658Y4731156D01*
X1511706Y4736033D01*
X1513636Y4741519D01*
X1514348Y4747818D01*
X1514348Y4904181D01*
X1513636Y4910480D01*
X1511706Y4915966D01*
X1508658Y4920843D01*
X1504543Y4924958D01*
X1499666Y4928006D01*
X1494180Y4929936D01*
X1487881Y4930648D01*
X1331468Y4930648D01*
X1327556Y4931410D01*
X1324305Y4933645D01*
X1322070Y4936896D01*
X1321308Y4940808D01*
X1321308Y5767832D01*
X1322070Y5771743D01*
X1324305Y5774994D01*
X1327556Y5777230D01*
X1331468Y5777992D01*
X1697278Y5777992D01*
X1701038Y5777280D01*
X1704289Y5775147D01*
X1706524Y5771997D01*
X1707438Y5768238D01*
X1706829Y5764428D01*
X1704848Y5761075D01*
X1694992Y5749950D01*
X1687372Y5738571D01*
X1681327Y5726277D01*
X1676958Y5713323D01*
X1674266Y5699912D01*
X1673352Y5685942D01*
X1673352Y5594096D01*
X1674266Y5580075D01*
X1676958Y5566664D01*
X1681327Y5553710D01*
X1687372Y5541416D01*
X1694992Y5530037D01*
X1704035Y5519775D01*
X1714296Y5510733D01*
X1725675Y5503113D01*
X1737969Y5497068D01*
X1750923Y5492699D01*
X1764334Y5490006D01*
X1778000Y5489092D01*
X1792020Y5490006D01*
X1796237Y5489397D01*
X1799843Y5487060D01*
X1921052Y5365902D01*
X1923237Y5362600D01*
X1923999Y5358739D01*
X1923237Y5354828D01*
X1921052Y5351526D01*
X1917750Y5349341D01*
X1913839Y5348579D01*
X1862378Y5348579D01*
X1856028Y5347868D01*
X1850593Y5345938D01*
X1845665Y5342839D01*
X1841195Y5339486D01*
X1837283Y5338724D01*
X1771091Y5339080D01*
X1765300Y5339537D01*
X1759813Y5339130D01*
X1727403Y5339130D01*
X1722323Y5338876D01*
X1717497Y5338267D01*
X1712722Y5337200D01*
X1708099Y5335727D01*
X1703578Y5333847D01*
X1699260Y5331612D01*
X1695145Y5328970D01*
X1691284Y5326024D01*
X1687525Y5322570D01*
X1611630Y5246674D01*
X1608175Y5242915D01*
X1605229Y5239054D01*
X1602587Y5234940D01*
X1600352Y5230622D01*
X1598472Y5226100D01*
X1596999Y5221478D01*
X1595932Y5216702D01*
X1595323Y5211876D01*
X1595069Y5206796D01*
X1595069Y3683457D01*
X1595983Y3673297D01*
X1598523Y3663899D01*
X1602638Y3655060D01*
X1608226Y3647084D01*
X1615084Y3640226D01*
X1623060Y3634638D01*
X1631899Y3630523D01*
X1641297Y3627983D01*
X1651457Y3627069D01*
X1969516Y3627069D01*
X1973376Y3626307D01*
X1976678Y3624122D01*
X1978914Y3620820D01*
X1979675Y3616909D01*
X1978914Y3613048D01*
X1976678Y3609746D01*
X1769770Y3402837D01*
X1767382Y3401060D01*
X1764538Y3400044D01*
X1750923Y3397300D01*
X1737969Y3392932D01*
X1725675Y3386886D01*
X1714296Y3379266D01*
X1704035Y3370224D01*
X1694992Y3359962D01*
X1687372Y3348583D01*
X1681327Y3336290D01*
X1676958Y3323336D01*
X1674266Y3309924D01*
X1673352Y3295904D01*
X1673352Y3204057D01*
X1674266Y3190087D01*
X1676958Y3176676D01*
X1681327Y3163722D01*
X1687372Y3151428D01*
X1694992Y3140049D01*
X1704035Y3129737D01*
X1714296Y3120745D01*
X1718513Y3117900D01*
X1721510Y3114852D01*
X1722932Y3110788D01*
X1722628Y3106521D01*
X1720545Y3102762D01*
X1717090Y3100222D01*
X1712874Y3099308D01*
G37*

%LPC*%
G36*
X1455420Y4478121D02*
G01*
X1462024Y4481372D01*
X1473403Y4488992D01*
X1483664Y4498035D01*
X1492707Y4508296D01*
X1500327Y4519676D01*
X1503578Y4526280D01*
X1455420Y4526280D01*
G37*
G36*
X1455420Y4617720D02*
G01*
X1503578Y4617720D01*
X1500327Y4624324D01*
X1492707Y4635703D01*
X1483664Y4645964D01*
X1473403Y4655007D01*
X1462024Y4662627D01*
X1455420Y4665878D01*
G37*

%LPD*%
D11*
X2667000Y3721963D02*
G01*
X2628036Y3683000D01*
X1651000Y3683000D01*
X1753463Y3822700D02*
G01*
X1753463Y4039463D01*
X1778000Y4064000D01*
X2405989Y5116995D02*
G01*
X2413000Y5109984D01*
X2413000Y4718380D01*
X2032000Y4718380D02*
G01*
X2032000Y4982984D01*
X2166010Y5116995D01*
X2159000Y4718304D02*
G01*
X2159000Y4851400D01*
X2245868Y4942078D01*
X2245868Y5117084D01*
X2286000Y4718380D02*
G01*
X2326004Y4758385D01*
X2326004Y5116995D01*
X2405989Y5297004D02*
G01*
X2503004Y5297004D01*
X2794000Y5588000D01*
X2245995Y5297004D02*
G01*
X2245995Y5374004D01*
X2032000Y5588000D01*
X2159000Y4171695D02*
G01*
X2159000Y4064000D01*
X2039010Y3944010D01*
X2039010Y3772992D01*
X2286000Y4171695D02*
G01*
X2286000Y4064000D01*
X2118995Y3896995D01*
X2118995Y3772992D01*
X2199004Y3773004D02*
G01*
X2199004Y3850004D01*
X2413000Y4064000D01*
X2413000Y4171619D01*
X2278989Y3773004D02*
G01*
X2540000Y4034015D01*
X2540000Y4171619D01*
X2039010Y3592995D02*
G01*
X1778000Y3331984D01*
X1778000Y3302000D01*
X2118995Y3592995D02*
G01*
X2118995Y3388995D01*
X2032000Y3302000D01*
X2199004Y3592995D02*
G01*
X2199004Y3515995D01*
X2286000Y3429000D01*
X2413000Y3429000D01*
X2540000Y3302000D01*
X2278989Y3592995D02*
G01*
X2503004Y3592995D01*
X2794000Y3302000D01*
X1905000Y5282437D02*
G01*
X1765300Y5283200D01*
X1905000Y4832217D02*
G01*
X1905000Y5131663D01*
X1905000Y4718380D02*
G01*
X1905000Y4832217D01*
X2667000Y3721961D02*
G01*
X2667861Y3721100D01*
X2844800Y3721100D01*
X2667000Y3872636D02*
G01*
X2667000Y4171619D01*
X1905000Y4171619D02*
G01*
X1905000Y4718380D01*
X3162300Y4826000D02*
G01*
X3035300Y4953000D01*
X2540000Y4953000D01*
X2540000Y4718377D01*
X2032000Y4171619D02*
G01*
X2032000Y4064000D01*
X1905000Y3937000D01*
X1778000Y4064000D01*
X2032000Y4445000D02*
G01*
X2032000Y4445000D01*
X2032000Y4718380D01*
X1651000Y5207000D02*
G01*
X1727200Y5283200D01*
X1765300Y5283200D01*
X1651000Y3683000D02*
G01*
X1651000Y3937000D01*
X2933700Y4814694D02*
G01*
X2945005Y4826000D01*
X3162300Y4826000D01*
X2933700Y4608705D02*
G01*
X2970405Y4572000D01*
X3162300Y4572000D01*
X2667000Y4718304D02*
G01*
X2921000Y4318000D01*
X3067304Y4318000D01*
X3162300Y4318000D01*
X2667000Y4171619D02*
G01*
X2667000Y4171619D01*
X2603500Y4572000D01*
X3162300Y4064000D02*
G01*
X3124200Y4064000D01*
X2832100Y4165600D01*
X2717800Y4445000D01*
X2326004Y5297004D02*
G01*
X2326004Y5397500D01*
X2516504Y5588000D01*
X2540000Y5588000D01*
X2166010Y5297004D02*
G01*
X2068995Y5297004D01*
X1778000Y5588000D01*
X1651000Y3853179D02*
G01*
X1651000Y5207000D01*
D12*
X1905000Y4240245D02*
G01*
X1905000Y4102994D01*
X2032000Y4240245D02*
G01*
X2032000Y4102994D01*
X2159000Y4240245D02*
G01*
X2159000Y4102994D01*
X2286000Y4240245D02*
G01*
X2286000Y4102994D01*
X2413000Y4240245D02*
G01*
X2413000Y4102994D01*
X2540000Y4240245D02*
G01*
X2540000Y4102994D01*
X2667000Y4240245D02*
G01*
X2667000Y4102994D01*
X1905000Y4787005D02*
G01*
X1905000Y4649754D01*
X2032000Y4787005D02*
G01*
X2032000Y4649754D01*
X2159000Y4787005D02*
G01*
X2159000Y4649754D01*
X2286000Y4787005D02*
G01*
X2286000Y4649754D01*
X2413000Y4787005D02*
G01*
X2413000Y4649754D01*
X2540000Y4787005D02*
G01*
X2540000Y4649754D01*
X2667000Y4787005D02*
G01*
X2667000Y4649754D01*
G36*
X1863801Y3779499D02*
G01*
X1863801Y3865900D01*
X1944448Y3865900D01*
X1944448Y3779499D01*
G37*
G36*
X1793798Y3779499D02*
G01*
X1793798Y3865900D01*
X1713151Y3865900D01*
X1713151Y3779499D01*
G37*
G36*
X1948200Y5242001D02*
G01*
X1861799Y5242001D01*
X1861799Y5322648D01*
X1948200Y5322648D01*
G37*
D15*
G01*
X1905000Y5131663D03*
G36*
X2623799Y3762298D02*
G01*
X2710200Y3762298D01*
X2710200Y3681651D01*
X2623799Y3681651D01*
G37*
G01*
X2667000Y3872636D03*
G36*
X2373490Y5336997D02*
G01*
X2438488Y5336997D01*
X2438488Y5256997D01*
X2373490Y5256997D01*
G37*
G36*
X2373490Y5157002D02*
G01*
X2438488Y5157002D01*
X2438488Y5077002D01*
X2373490Y5077002D01*
G37*
G36*
X2301003Y5336997D02*
G01*
X2351006Y5336997D01*
X2351006Y5256997D01*
X2301003Y5256997D01*
G37*
G36*
X2301003Y5157002D02*
G01*
X2351006Y5157002D01*
X2351006Y5077002D01*
X2301003Y5077002D01*
G37*
G36*
X2220993Y5336997D02*
G01*
X2270996Y5336997D01*
X2270996Y5256997D01*
X2220993Y5256997D01*
G37*
G36*
X2220993Y5157002D02*
G01*
X2270996Y5157002D01*
X2270996Y5077002D01*
X2220993Y5077002D01*
G37*
G36*
X2133511Y5336997D02*
G01*
X2198509Y5336997D01*
X2198509Y5256997D01*
X2133511Y5256997D01*
G37*
G36*
X2133511Y5157002D02*
G01*
X2198509Y5157002D01*
X2198509Y5077002D01*
X2133511Y5077002D01*
G37*
G36*
X2246490Y3812997D02*
G01*
X2311488Y3812997D01*
X2311488Y3732997D01*
X2246490Y3732997D01*
G37*
G36*
X2246490Y3633002D02*
G01*
X2311488Y3633002D01*
X2311488Y3553002D01*
X2246490Y3553002D01*
G37*
G36*
X2174003Y3812997D02*
G01*
X2224006Y3812997D01*
X2224006Y3732997D01*
X2174003Y3732997D01*
G37*
G36*
X2174003Y3633002D02*
G01*
X2224006Y3633002D01*
X2224006Y3553002D01*
X2174003Y3553002D01*
G37*
G36*
X2093993Y3812997D02*
G01*
X2143996Y3812997D01*
X2143996Y3732997D01*
X2093993Y3732997D01*
G37*
G36*
X2093993Y3633002D02*
G01*
X2143996Y3633002D01*
X2143996Y3553002D01*
X2093993Y3553002D01*
G37*
G36*
X2006511Y3812997D02*
G01*
X2071509Y3812997D01*
X2071509Y3732997D01*
X2006511Y3732997D01*
G37*
G36*
X2006511Y3633002D02*
G01*
X2071509Y3633002D01*
X2071509Y3553002D01*
X2006511Y3553002D01*
G37*
G36*
X2866199Y4679200D02*
G01*
X3001200Y4679200D01*
X3001200Y4538200D01*
X2866199Y4538200D01*
G37*
D18*
G01*
X2933700Y4814696D03*
G36*
X2207259Y3374999D02*
G01*
X2364740Y3374999D01*
X2364740Y3125000D01*
X2207259Y3125000D01*
G37*
G36*
X2207259Y5764999D02*
G01*
X2364740Y5764999D01*
X2364740Y5514997D01*
X2207259Y5514997D01*
G37*
G36*
X1330960Y4904739D02*
G01*
X1330960Y4747260D01*
X1488439Y4747260D01*
X1488439Y4904739D01*
G37*
D21*
G01*
X1409700Y4572000D03*
G01*
X1409700Y4318000D03*
G01*
X1409700Y4064000D03*
G36*
X3083559Y4904739D02*
G01*
X3083559Y4747260D01*
X3241040Y4747260D01*
X3241040Y4904739D01*
G37*
G01*
X3162300Y4572000D03*
G01*
X3162300Y4318000D03*
G01*
X3162300Y4064000D03*
D13*
G01*
X2844800Y3721100D03*
G01*
X1765300Y5283200D03*
G01*
X1905000Y4832222D03*
G01*
X1778000Y4064000D03*
G01*
X2717800Y4445000D03*
G01*
X2032000Y4445000D03*
G01*
X2603500Y4572000D03*
G01*
X1778000Y4445000D03*
G01*
X1473200Y5080000D03*
G01*
X1435100Y3848100D03*
G01*
X3022600Y3543300D03*
G01*
X2921000Y5207000D03*
G01*
X1854200Y3822700D03*
D21*
X2794000Y3296264D02*
G01*
X2794000Y3203745D01*
X2540000Y3296264D02*
G01*
X2540000Y3203745D01*
X2032000Y3296264D02*
G01*
X2032000Y3203745D01*
X1778000Y3296264D02*
G01*
X1778000Y3203745D01*
X2794000Y5686252D02*
G01*
X2794000Y5593732D01*
X2540000Y5686252D02*
G01*
X2540000Y5593732D01*
X2032000Y5686252D02*
G01*
X2032000Y5593732D01*
X1778000Y5686252D02*
G01*
X1778000Y5593732D01*
M02*
