G04 Layer: TopPasteMaskLayer*
G04 EasyEDA v6.4.31, 2022-02-03 12:49:45*
G04 a9be7c87d83144a3bb2ccb21b8cae2d4,a012b36b664746af8e538b06cf3162c4,10*
G04 Gerber Generator version 0.2*
G04 Scale: 100 percent, Rotated: No, Reflected: No *
G04 Dimensions in millimeters *
G04 leading zeros omitted , absolute positions ,4 integer and 5 decimal *
%FSLAX45Y45*%
%MOMM*%

%ADD12C,0.5950*%

%LPD*%
G36*
X1868322Y3867708D02*
G01*
X1863293Y3862679D01*
X1863293Y3839921D01*
X1900326Y3839921D01*
X1900326Y3806901D01*
X1863293Y3806901D01*
X1863293Y3782720D01*
X1868322Y3777691D01*
X1948281Y3777691D01*
X1953310Y3782720D01*
X1953310Y3862679D01*
X1948281Y3867708D01*
G37*
G36*
X1709318Y3867708D02*
G01*
X1704289Y3862679D01*
X1704289Y3782720D01*
X1709318Y3777691D01*
X1788312Y3777691D01*
X1793290Y3782720D01*
X1793290Y3806901D01*
X1755292Y3806901D01*
X1755292Y3839921D01*
X1793290Y3839921D01*
X1793290Y3862679D01*
X1788312Y3867708D01*
G37*
G36*
X1865020Y5331510D02*
G01*
X1859991Y5326481D01*
X1859991Y5246522D01*
X1865020Y5241493D01*
X1887778Y5241493D01*
X1887778Y5278526D01*
X1920798Y5278526D01*
X1920798Y5241493D01*
X1944979Y5241493D01*
X1950008Y5246522D01*
X1950008Y5326481D01*
X1944979Y5331510D01*
G37*
G36*
X1865020Y5171490D02*
G01*
X1859991Y5166512D01*
X1859991Y5087518D01*
X1865020Y5082489D01*
X1944979Y5082489D01*
X1950008Y5087518D01*
X1950008Y5166512D01*
X1944979Y5171490D01*
X1920798Y5171490D01*
X1920798Y5133492D01*
X1887778Y5133492D01*
X1887778Y5171490D01*
G37*
G36*
X2627020Y3762806D02*
G01*
X2621991Y3757777D01*
X2621991Y3677818D01*
X2627020Y3672789D01*
X2706979Y3672789D01*
X2712008Y3677818D01*
X2712008Y3757777D01*
X2706979Y3762806D01*
X2684221Y3762806D01*
X2684221Y3725773D01*
X2651201Y3725773D01*
X2651201Y3762806D01*
G37*
G36*
X2627020Y3921810D02*
G01*
X2621991Y3916781D01*
X2621991Y3837787D01*
X2627020Y3832809D01*
X2651201Y3832809D01*
X2651201Y3870807D01*
X2684221Y3870807D01*
X2684221Y3832809D01*
X2706979Y3832809D01*
X2712008Y3837787D01*
X2712008Y3916781D01*
X2706979Y3921810D01*
G37*
G36*
X2871724Y4879187D02*
G01*
X2866694Y4874209D01*
X2866694Y4759198D01*
X2871724Y4754219D01*
X2913684Y4754676D01*
X2913684Y4798720D01*
X2958693Y4798720D01*
X2958693Y4753711D01*
X2999689Y4754219D01*
X3004718Y4759198D01*
X3004718Y4874209D01*
X2999689Y4879187D01*
G37*
G36*
X2871724Y4664202D02*
G01*
X2866694Y4659223D01*
X2866694Y4544212D01*
X2871724Y4539183D01*
X2999689Y4539183D01*
X3004718Y4544212D01*
X3004718Y4659223D01*
X2999689Y4664202D01*
X2958693Y4663694D01*
X2958693Y4619701D01*
X2913684Y4619701D01*
X2913684Y4664202D01*
G37*
D12*
X1905000Y4240245D02*
G01*
X1905000Y4102994D01*
X2032000Y4240245D02*
G01*
X2032000Y4102994D01*
X2159000Y4240245D02*
G01*
X2159000Y4102994D01*
X2286000Y4240245D02*
G01*
X2286000Y4102994D01*
X2413000Y4240245D02*
G01*
X2413000Y4102994D01*
X2540000Y4240245D02*
G01*
X2540000Y4102994D01*
X2667000Y4240245D02*
G01*
X2667000Y4102994D01*
X1905000Y4787005D02*
G01*
X1905000Y4649754D01*
X2032000Y4787005D02*
G01*
X2032000Y4649754D01*
X2159000Y4787005D02*
G01*
X2159000Y4649754D01*
X2286000Y4787005D02*
G01*
X2286000Y4649754D01*
X2413000Y4787005D02*
G01*
X2413000Y4649754D01*
X2540000Y4787005D02*
G01*
X2540000Y4649754D01*
X2667000Y4787005D02*
G01*
X2667000Y4649754D01*
G36*
X2373490Y5336997D02*
G01*
X2438488Y5336997D01*
X2438488Y5256997D01*
X2373490Y5256997D01*
G37*
G36*
X2373490Y5157002D02*
G01*
X2438488Y5157002D01*
X2438488Y5077002D01*
X2373490Y5077002D01*
G37*
G36*
X2301003Y5336997D02*
G01*
X2351006Y5336997D01*
X2351006Y5256997D01*
X2301003Y5256997D01*
G37*
G36*
X2301003Y5157002D02*
G01*
X2351006Y5157002D01*
X2351006Y5077002D01*
X2301003Y5077002D01*
G37*
G36*
X2220993Y5336997D02*
G01*
X2270996Y5336997D01*
X2270996Y5256997D01*
X2220993Y5256997D01*
G37*
G36*
X2220993Y5157002D02*
G01*
X2270996Y5157002D01*
X2270996Y5077002D01*
X2220993Y5077002D01*
G37*
G36*
X2133511Y5336997D02*
G01*
X2198509Y5336997D01*
X2198509Y5256997D01*
X2133511Y5256997D01*
G37*
G36*
X2133511Y5157002D02*
G01*
X2198509Y5157002D01*
X2198509Y5077002D01*
X2133511Y5077002D01*
G37*
G36*
X2246490Y3812997D02*
G01*
X2311488Y3812997D01*
X2311488Y3732997D01*
X2246490Y3732997D01*
G37*
G36*
X2246490Y3633002D02*
G01*
X2311488Y3633002D01*
X2311488Y3553002D01*
X2246490Y3553002D01*
G37*
G36*
X2174003Y3812997D02*
G01*
X2224006Y3812997D01*
X2224006Y3732997D01*
X2174003Y3732997D01*
G37*
G36*
X2174003Y3633002D02*
G01*
X2224006Y3633002D01*
X2224006Y3553002D01*
X2174003Y3553002D01*
G37*
G36*
X2093993Y3812997D02*
G01*
X2143996Y3812997D01*
X2143996Y3732997D01*
X2093993Y3732997D01*
G37*
G36*
X2093993Y3633002D02*
G01*
X2143996Y3633002D01*
X2143996Y3553002D01*
X2093993Y3553002D01*
G37*
G36*
X2006511Y3812997D02*
G01*
X2071509Y3812997D01*
X2071509Y3732997D01*
X2006511Y3732997D01*
G37*
G36*
X2006511Y3633002D02*
G01*
X2071509Y3633002D01*
X2071509Y3553002D01*
X2006511Y3553002D01*
G37*
M02*
