G04 Layer: TopSilkscreenLayer*
G04 EasyEDA v6.4.31, 2022-02-03 12:49:45*
G04 a9be7c87d83144a3bb2ccb21b8cae2d4,a012b36b664746af8e538b06cf3162c4,10*
G04 Gerber Generator version 0.2*
G04 Scale: 100 percent, Rotated: No, Reflected: No *
G04 Dimensions in millimeters *
G04 leading zeros omitted , absolute positions ,4 integer and 5 decimal *
%FSLAX45Y45*%
%MOMM*%

%ADD23C,0.1524*%
%ADD24C,0.2032*%
%ADD25C,0.2030*%
%ADD26C,0.2000*%
%ADD27C,0.3000*%

%LPD*%
D24*
X1362455Y5406644D02*
G01*
X1486154Y5406644D01*
X1507997Y5414010D01*
X1515363Y5428487D01*
X1515363Y5442965D01*
X1413510Y5384800D02*
G01*
X1413510Y5435600D01*
X1413510Y5527294D02*
G01*
X1420621Y5512815D01*
X1435354Y5498337D01*
X1457197Y5490971D01*
X1471676Y5490971D01*
X1493520Y5498337D01*
X1507997Y5512815D01*
X1515363Y5527294D01*
X1515363Y5549137D01*
X1507997Y5563615D01*
X1493520Y5578347D01*
X1471676Y5585460D01*
X1457197Y5585460D01*
X1435354Y5578347D01*
X1420621Y5563615D01*
X1413510Y5549137D01*
X1413510Y5527294D01*
X1413510Y5633465D02*
G01*
X1566163Y5633465D01*
X1435354Y5633465D02*
G01*
X1420621Y5648197D01*
X1413510Y5662676D01*
X1413510Y5684520D01*
X1420621Y5698997D01*
X1435354Y5713476D01*
X1457197Y5720842D01*
X1471676Y5720842D01*
X1493520Y5713476D01*
X1507997Y5698997D01*
X1515363Y5684520D01*
X1515363Y5662676D01*
X1507997Y5648197D01*
X1493520Y5633465D01*
X1653031Y5176265D02*
G01*
X1638300Y5169154D01*
X1623821Y5154676D01*
X1616455Y5139944D01*
X1616455Y5110987D01*
X1623821Y5096510D01*
X1638300Y5081778D01*
X1653031Y5074665D01*
X1674621Y5067300D01*
X1711197Y5067300D01*
X1732787Y5074665D01*
X1747520Y5081778D01*
X1761997Y5096510D01*
X1769363Y5110987D01*
X1769363Y5139944D01*
X1761997Y5154676D01*
X1747520Y5169154D01*
X1732787Y5176265D01*
X1616455Y5282692D02*
G01*
X1769363Y5224271D01*
X1616455Y5282692D02*
G01*
X1769363Y5340857D01*
X1718310Y5246115D02*
G01*
X1718310Y5319013D01*
X2453131Y3766565D02*
G01*
X2438400Y3759454D01*
X2423922Y3744976D01*
X2416556Y3730244D01*
X2416556Y3701287D01*
X2423922Y3686810D01*
X2438400Y3672078D01*
X2453131Y3664965D01*
X2474722Y3657600D01*
X2511297Y3657600D01*
X2532888Y3664965D01*
X2547620Y3672078D01*
X2562097Y3686810D01*
X2569463Y3701287D01*
X2569463Y3730244D01*
X2562097Y3744976D01*
X2547620Y3759454D01*
X2532888Y3766565D01*
X2453131Y3923792D02*
G01*
X2438400Y3916426D01*
X2423922Y3901947D01*
X2416556Y3887470D01*
X2416556Y3858260D01*
X2423922Y3843781D01*
X2438400Y3829304D01*
X2453131Y3821937D01*
X2474722Y3814571D01*
X2511297Y3814571D01*
X2532888Y3821937D01*
X2547620Y3829304D01*
X2562097Y3843781D01*
X2569463Y3858260D01*
X2569463Y3887470D01*
X2562097Y3901947D01*
X2547620Y3916426D01*
X2532888Y3923792D01*
D23*
X1790700Y4026915D02*
G01*
X1790700Y3917950D01*
X1790700Y4026915D02*
G01*
X1837436Y4026915D01*
X1852929Y4021836D01*
X1858263Y4016502D01*
X1863344Y4006087D01*
X1863344Y3990594D01*
X1858263Y3980179D01*
X1852929Y3975100D01*
X1837436Y3969765D01*
X1790700Y3969765D01*
X1897634Y4026915D02*
G01*
X1897634Y3917950D01*
X1897634Y4026915D02*
G01*
X1934209Y4026915D01*
X1949704Y4021836D01*
X1960118Y4011421D01*
X1965197Y4001007D01*
X1970531Y3985260D01*
X1970531Y3959352D01*
X1965197Y3943857D01*
X1960118Y3933444D01*
X1949704Y3923029D01*
X1934209Y3917950D01*
X1897634Y3917950D01*
X1871421Y3756639D02*
G01*
X1967308Y3756639D01*
X1967308Y3888760D01*
X1871421Y3888760D01*
X1786178Y3756639D02*
G01*
X1690291Y3756639D01*
X1690291Y3888760D01*
X1786178Y3888760D01*
X1971060Y5249621D02*
G01*
X1971060Y5345508D01*
X1838939Y5345508D01*
X1838939Y5249621D01*
X1971060Y5164378D02*
G01*
X1971060Y5068491D01*
X1838939Y5068491D01*
X1838939Y5164378D01*
X2600939Y3754678D02*
G01*
X2600939Y3658791D01*
X2733060Y3658791D01*
X2733060Y3754678D01*
X2600939Y3839921D02*
G01*
X2600939Y3935808D01*
X2733060Y3935808D01*
X2733060Y3839921D01*
D24*
X1841500Y3429000D02*
G01*
X1651000Y3429000D01*
X1651000Y3175000D01*
X2921000Y3175000D01*
X2921000Y3429000D01*
D25*
X2921000Y3429000D02*
G01*
X1841500Y3429000D01*
D24*
X1841500Y5715000D02*
G01*
X1651000Y5715000D01*
X1651000Y5461000D01*
X2921000Y5461000D01*
X2921000Y5715000D01*
D25*
X2921000Y5715000D02*
G01*
X1841500Y5715000D01*
D26*
X2472956Y5161998D02*
G01*
X2472956Y5062021D01*
X2098967Y5061996D01*
X2098967Y5166009D01*
X2099005Y5251996D02*
G01*
X2099005Y5353977D01*
X2472994Y5354002D01*
X2472994Y5249971D01*
D23*
X1845878Y4292859D02*
G01*
X1845878Y4597140D01*
X2726121Y4597140D01*
X2726121Y4292859D01*
X1845878Y4292859D01*
D26*
X2345956Y3637998D02*
G01*
X2345956Y3538021D01*
X1971967Y3537996D01*
X1971967Y3642009D01*
X1972005Y3727996D02*
G01*
X1972005Y3829977D01*
X2345994Y3830002D01*
X2345994Y3725971D01*
D23*
X3024060Y4530580D02*
G01*
X3024060Y4671580D01*
X2843339Y4671580D02*
G01*
X2843339Y4530580D01*
X2858579Y4515340D02*
G01*
X3008820Y4515340D01*
X3024060Y4892819D02*
G01*
X3024060Y4751819D01*
X2843339Y4751819D02*
G01*
X2843339Y4892819D01*
X2858579Y4908059D02*
G01*
X3008820Y4908059D01*
G75*
G01*
X2843340Y4530580D02*
G03*
X2858579Y4515340I15240J0D01*
G75*
G01*
X3008821Y4515340D02*
G03*
X3024060Y4530580I-1J15240D01*
G75*
G01*
X2843340Y4892820D02*
G02*
X2858579Y4908060I15240J0D01*
G75*
G01*
X3008821Y4908060D02*
G02*
X3024060Y4892820I-1J-15240D01*
D27*
G75*
G01
X1920011Y4368089D02*
G03X1920011Y4368089I-15011J0D01*
G75*
G01
X1845031Y4171620D02*
G03X1845031Y4171620I-15011J0D01*
M02*
