G04 Layer: BottomLayer*
G04 EasyEDA v6.4.31, 2022-02-03 12:49:45*
G04 a9be7c87d83144a3bb2ccb21b8cae2d4,a012b36b664746af8e538b06cf3162c4,10*
G04 Gerber Generator version 0.2*
G04 Scale: 100 percent, Rotated: No, Reflected: No *
G04 Dimensions in millimeters *
G04 leading zeros omitted , absolute positions ,4 integer and 5 decimal *
%FSLAX45Y45*%
%MOMM*%

%ADD11C,0.6000*%
%ADD13C,0.6096*%
%ADD21C,1.5748*%
%ADD22C,0.8000*%

%LPD*%
G36*
X1524508Y4891887D02*
G01*
X1520596Y4892700D01*
X1517345Y4894884D01*
X1515110Y4898186D01*
X1514348Y4902047D01*
X1514348Y4904181D01*
X1513636Y4910480D01*
X1511706Y4915966D01*
X1508658Y4920843D01*
X1504543Y4924958D01*
X1499666Y4928006D01*
X1494180Y4929936D01*
X1487881Y4930648D01*
X1331468Y4930648D01*
X1327556Y4931410D01*
X1324305Y4933645D01*
X1322070Y4936896D01*
X1321308Y4940808D01*
X1321308Y5767832D01*
X1322070Y5771743D01*
X1324305Y5774994D01*
X1327556Y5777230D01*
X1331468Y5777992D01*
X1697278Y5777992D01*
X1701038Y5777280D01*
X1704289Y5775147D01*
X1706524Y5771997D01*
X1707438Y5768238D01*
X1706829Y5764428D01*
X1704848Y5761075D01*
X1694992Y5749950D01*
X1687372Y5738571D01*
X1681327Y5726277D01*
X1676958Y5713323D01*
X1674266Y5699912D01*
X1673352Y5685942D01*
X1673352Y5594096D01*
X1674266Y5580075D01*
X1676958Y5566664D01*
X1681327Y5553710D01*
X1687372Y5541416D01*
X1694992Y5530037D01*
X1704035Y5519775D01*
X1714296Y5510733D01*
X1725675Y5503113D01*
X1737969Y5497068D01*
X1750923Y5492699D01*
X1764334Y5490006D01*
X1778000Y5489092D01*
X1791665Y5490006D01*
X1805076Y5492699D01*
X1818030Y5497068D01*
X1830324Y5503113D01*
X1841703Y5510733D01*
X1851964Y5519775D01*
X1861007Y5530037D01*
X1868627Y5541416D01*
X1874672Y5553710D01*
X1879041Y5566664D01*
X1881733Y5580075D01*
X1882648Y5594096D01*
X1882648Y5685942D01*
X1881733Y5699912D01*
X1879041Y5713323D01*
X1874672Y5726277D01*
X1868627Y5738571D01*
X1861007Y5749950D01*
X1851152Y5761075D01*
X1849170Y5764428D01*
X1848561Y5768238D01*
X1849475Y5771997D01*
X1851710Y5775147D01*
X1854962Y5777280D01*
X1858721Y5777992D01*
X1951278Y5777992D01*
X1955038Y5777280D01*
X1958289Y5775147D01*
X1960524Y5771997D01*
X1961438Y5768238D01*
X1960829Y5764428D01*
X1958848Y5761075D01*
X1948992Y5749950D01*
X1941372Y5738571D01*
X1935327Y5726277D01*
X1930958Y5713323D01*
X1928266Y5699912D01*
X1927352Y5685942D01*
X1927352Y5594096D01*
X1928266Y5580075D01*
X1930958Y5566664D01*
X1935327Y5553710D01*
X1941372Y5541416D01*
X1948992Y5530037D01*
X1958035Y5519775D01*
X1968296Y5510733D01*
X1979675Y5503113D01*
X1991969Y5497068D01*
X2004923Y5492699D01*
X2018334Y5490006D01*
X2032000Y5489092D01*
X2045665Y5490006D01*
X2059076Y5492699D01*
X2072030Y5497068D01*
X2084324Y5503113D01*
X2095703Y5510733D01*
X2105964Y5519775D01*
X2115007Y5530037D01*
X2122627Y5541416D01*
X2128672Y5553710D01*
X2133041Y5566664D01*
X2135733Y5580075D01*
X2136648Y5594096D01*
X2136648Y5685942D01*
X2135733Y5699912D01*
X2133041Y5713323D01*
X2128672Y5726277D01*
X2122627Y5738571D01*
X2115007Y5749950D01*
X2105152Y5761075D01*
X2103170Y5764428D01*
X2102561Y5768238D01*
X2103475Y5771997D01*
X2105710Y5775147D01*
X2108962Y5777280D01*
X2112721Y5777992D01*
X2171496Y5777992D01*
X2175662Y5777128D01*
X2179066Y5774588D01*
X2181199Y5770930D01*
X2181606Y5766714D01*
X2181352Y5764428D01*
X2181352Y5566613D01*
X2180590Y5562752D01*
X2178354Y5559450D01*
X2075332Y5456377D01*
X2072030Y5454192D01*
X2068118Y5453430D01*
X1765757Y5453430D01*
X1755597Y5452516D01*
X1746199Y5449976D01*
X1737360Y5445861D01*
X1729384Y5440273D01*
X1722526Y5433415D01*
X1716938Y5425440D01*
X1712823Y5416600D01*
X1710283Y5407202D01*
X1709369Y5397042D01*
X1709369Y5288686D01*
X1708962Y5283200D01*
X1709826Y5273395D01*
X1712366Y5263946D01*
X1716481Y5255006D01*
X1722120Y5246979D01*
X1729079Y5240020D01*
X1737106Y5234381D01*
X1746046Y5230266D01*
X1755495Y5227726D01*
X1765300Y5226862D01*
X1775104Y5227726D01*
X1784553Y5230266D01*
X1793493Y5234381D01*
X1801520Y5240020D01*
X1808480Y5246979D01*
X1814118Y5255006D01*
X1818233Y5263946D01*
X1820773Y5273395D01*
X1821637Y5283200D01*
X1821230Y5288686D01*
X1821230Y5331409D01*
X1821992Y5335320D01*
X1824177Y5338622D01*
X1827479Y5340807D01*
X1831390Y5341569D01*
X2095296Y5341569D01*
X2100376Y5341823D01*
X2105202Y5342432D01*
X2109978Y5343499D01*
X2114600Y5344972D01*
X2119122Y5346852D01*
X2123440Y5349087D01*
X2127554Y5351729D01*
X2131415Y5354675D01*
X2135174Y5358130D01*
X2263190Y5486095D01*
X2266492Y5488330D01*
X2270353Y5489092D01*
X2364181Y5489092D01*
X2370480Y5489803D01*
X2375966Y5491734D01*
X2380843Y5494782D01*
X2384958Y5498896D01*
X2388006Y5503773D01*
X2389936Y5509260D01*
X2390648Y5515559D01*
X2390648Y5764428D01*
X2390394Y5766714D01*
X2390800Y5770930D01*
X2392934Y5774588D01*
X2396337Y5777128D01*
X2400503Y5777992D01*
X2459278Y5777992D01*
X2463038Y5777280D01*
X2466289Y5775147D01*
X2468524Y5771997D01*
X2469438Y5768238D01*
X2468829Y5764428D01*
X2466848Y5761075D01*
X2456992Y5749950D01*
X2449372Y5738571D01*
X2443327Y5726277D01*
X2438958Y5713323D01*
X2436266Y5699912D01*
X2435352Y5685942D01*
X2435352Y5594096D01*
X2436266Y5580075D01*
X2438958Y5566664D01*
X2443327Y5553710D01*
X2449372Y5541416D01*
X2456992Y5530037D01*
X2466035Y5519775D01*
X2476296Y5510733D01*
X2487676Y5503113D01*
X2499969Y5497068D01*
X2512923Y5492699D01*
X2526334Y5490006D01*
X2540000Y5489092D01*
X2553665Y5490006D01*
X2567076Y5492699D01*
X2580030Y5497068D01*
X2592324Y5503113D01*
X2603703Y5510733D01*
X2613964Y5519775D01*
X2623007Y5530037D01*
X2630627Y5541416D01*
X2636672Y5553710D01*
X2641041Y5566664D01*
X2643733Y5580075D01*
X2644648Y5594096D01*
X2644648Y5685942D01*
X2643733Y5699912D01*
X2641041Y5713323D01*
X2636672Y5726277D01*
X2630627Y5738571D01*
X2623007Y5749950D01*
X2613152Y5761075D01*
X2611170Y5764428D01*
X2610561Y5768238D01*
X2611475Y5771997D01*
X2613710Y5775147D01*
X2616962Y5777280D01*
X2620721Y5777992D01*
X2713278Y5777992D01*
X2717038Y5777280D01*
X2720289Y5775147D01*
X2722524Y5771997D01*
X2723438Y5768238D01*
X2722829Y5764428D01*
X2720848Y5761075D01*
X2710992Y5749950D01*
X2703372Y5738571D01*
X2697327Y5726277D01*
X2692958Y5713323D01*
X2690266Y5699912D01*
X2689352Y5685942D01*
X2689352Y5594096D01*
X2690266Y5580075D01*
X2692958Y5566664D01*
X2697327Y5553710D01*
X2703372Y5541416D01*
X2710992Y5530037D01*
X2720035Y5519775D01*
X2730296Y5510733D01*
X2741676Y5503113D01*
X2753969Y5497068D01*
X2766923Y5492699D01*
X2780334Y5490006D01*
X2794000Y5489092D01*
X2807665Y5490006D01*
X2821076Y5492699D01*
X2834030Y5497068D01*
X2846324Y5503113D01*
X2857703Y5510733D01*
X2867964Y5519775D01*
X2877007Y5530037D01*
X2884627Y5541416D01*
X2890672Y5553710D01*
X2895041Y5566664D01*
X2897733Y5580075D01*
X2898648Y5594096D01*
X2898648Y5685942D01*
X2897733Y5699912D01*
X2895041Y5713323D01*
X2890672Y5726277D01*
X2884627Y5738571D01*
X2877007Y5749950D01*
X2867152Y5761075D01*
X2865170Y5764428D01*
X2864561Y5768238D01*
X2865475Y5771997D01*
X2867710Y5775147D01*
X2870962Y5777280D01*
X2874721Y5777992D01*
X3240532Y5777992D01*
X3244443Y5777230D01*
X3247694Y5774994D01*
X3249930Y5771743D01*
X3250692Y5767832D01*
X3250692Y4940808D01*
X3249930Y4936896D01*
X3247694Y4933645D01*
X3244443Y4931410D01*
X3240532Y4930648D01*
X3084118Y4930648D01*
X3077819Y4929936D01*
X3072333Y4928006D01*
X3067456Y4924958D01*
X3063341Y4920843D01*
X3060293Y4915966D01*
X3058363Y4910480D01*
X3057652Y4904181D01*
X3057652Y4902047D01*
X3056890Y4898186D01*
X3054654Y4894884D01*
X3051403Y4892700D01*
X3047492Y4891887D01*
G37*

%LPD*%
G36*
X1503324Y4373930D02*
G01*
X1500073Y4374438D01*
X1497177Y4376013D01*
X1494891Y4378401D01*
X1492707Y4381703D01*
X1483664Y4391964D01*
X1473403Y4401007D01*
X1462024Y4408627D01*
X1449730Y4414672D01*
X1436776Y4419041D01*
X1423365Y4421733D01*
X1409700Y4422648D01*
X1396034Y4421733D01*
X1382623Y4419041D01*
X1369669Y4414672D01*
X1357376Y4408627D01*
X1345996Y4401007D01*
X1338173Y4394149D01*
X1334820Y4392168D01*
X1331010Y4391609D01*
X1327251Y4392523D01*
X1324152Y4394758D01*
X1322019Y4397959D01*
X1321308Y4401769D01*
X1321308Y4488230D01*
X1322019Y4492040D01*
X1324152Y4495241D01*
X1327251Y4497476D01*
X1331010Y4498390D01*
X1334820Y4497832D01*
X1338173Y4495850D01*
X1345996Y4488992D01*
X1357376Y4481372D01*
X1363980Y4478121D01*
X1363980Y4526280D01*
X1331468Y4526280D01*
X1327556Y4527042D01*
X1324305Y4529277D01*
X1322070Y4532528D01*
X1321308Y4536440D01*
X1321308Y4607560D01*
X1322070Y4611471D01*
X1324305Y4614722D01*
X1327556Y4616958D01*
X1331468Y4617720D01*
X1363980Y4617720D01*
X1363980Y4665878D01*
X1357376Y4662627D01*
X1345996Y4655007D01*
X1338173Y4648149D01*
X1334820Y4646168D01*
X1331010Y4645609D01*
X1327251Y4646523D01*
X1324152Y4648758D01*
X1322019Y4651959D01*
X1321308Y4655769D01*
X1321308Y4711192D01*
X1322070Y4715103D01*
X1324305Y4718354D01*
X1327556Y4720590D01*
X1331468Y4721352D01*
X1487881Y4721352D01*
X1494180Y4722063D01*
X1499666Y4723993D01*
X1504543Y4727041D01*
X1508658Y4731156D01*
X1511706Y4736033D01*
X1513636Y4741519D01*
X1514348Y4747818D01*
X1514348Y4749952D01*
X1515110Y4753813D01*
X1517345Y4757115D01*
X1520596Y4759299D01*
X1524508Y4760112D01*
X3047492Y4760112D01*
X3051403Y4759299D01*
X3054654Y4757115D01*
X3056890Y4753813D01*
X3057652Y4749952D01*
X3057652Y4747818D01*
X3058363Y4741519D01*
X3060293Y4736033D01*
X3063341Y4731156D01*
X3067456Y4727041D01*
X3072333Y4723993D01*
X3077819Y4722063D01*
X3084118Y4721352D01*
X3240532Y4721352D01*
X3244443Y4720590D01*
X3247694Y4718354D01*
X3249930Y4715103D01*
X3250692Y4711192D01*
X3250692Y4655769D01*
X3249980Y4651959D01*
X3247847Y4648758D01*
X3244748Y4646523D01*
X3240989Y4645609D01*
X3237179Y4646168D01*
X3233826Y4648149D01*
X3226003Y4655007D01*
X3214624Y4662627D01*
X3208020Y4665878D01*
X3208020Y4617720D01*
X3240532Y4617720D01*
X3244443Y4616958D01*
X3247694Y4614722D01*
X3249930Y4611471D01*
X3250692Y4607560D01*
X3250692Y4536440D01*
X3249930Y4532528D01*
X3247694Y4529277D01*
X3244443Y4527042D01*
X3240532Y4526280D01*
X3208020Y4526280D01*
X3208020Y4478121D01*
X3214624Y4481372D01*
X3226003Y4488992D01*
X3233826Y4495850D01*
X3237179Y4497832D01*
X3240989Y4498390D01*
X3244748Y4497476D01*
X3247847Y4495241D01*
X3249980Y4492040D01*
X3250692Y4488230D01*
X3250692Y4401769D01*
X3249980Y4397959D01*
X3247847Y4394758D01*
X3244748Y4392523D01*
X3240989Y4391609D01*
X3237179Y4392168D01*
X3233826Y4394149D01*
X3226003Y4401007D01*
X3214624Y4408627D01*
X3202330Y4414672D01*
X3189376Y4419041D01*
X3175965Y4421733D01*
X3162300Y4422648D01*
X3148634Y4421733D01*
X3135223Y4419041D01*
X3122269Y4414672D01*
X3109976Y4408627D01*
X3098596Y4401007D01*
X3088335Y4391964D01*
X3079292Y4381703D01*
X3077108Y4378401D01*
X3074822Y4376013D01*
X3071926Y4374438D01*
X3068675Y4373930D01*
X2744012Y4373930D01*
X2740152Y4374642D01*
X2736900Y4376775D01*
X2734665Y4380026D01*
X2733852Y4383836D01*
X2734513Y4387646D01*
X2736545Y4390999D01*
X2739694Y4393285D01*
X2745994Y4396181D01*
X2754020Y4401820D01*
X2760980Y4408779D01*
X2766618Y4416806D01*
X2770733Y4425746D01*
X2773273Y4435195D01*
X2774137Y4445000D01*
X2773273Y4454804D01*
X2770733Y4464253D01*
X2766618Y4473194D01*
X2760980Y4481220D01*
X2754020Y4488180D01*
X2745994Y4493818D01*
X2737053Y4497933D01*
X2727604Y4500473D01*
X2717800Y4501337D01*
X2712313Y4500930D01*
X2037486Y4500930D01*
X2032000Y4501337D01*
X2022195Y4500473D01*
X2012746Y4497933D01*
X2003806Y4493818D01*
X1995779Y4488180D01*
X1988820Y4481220D01*
X1983181Y4473194D01*
X1979066Y4464253D01*
X1976526Y4454804D01*
X1975662Y4445000D01*
X1976526Y4435195D01*
X1979066Y4425746D01*
X1983181Y4416806D01*
X1988820Y4408779D01*
X1995779Y4401820D01*
X2003806Y4396181D01*
X2010105Y4393285D01*
X2013254Y4390999D01*
X2015286Y4387646D01*
X2015947Y4383836D01*
X2015134Y4380026D01*
X2012899Y4376775D01*
X2009648Y4374642D01*
X2005787Y4373930D01*
G37*

%LPC*%
G36*
X1455420Y4478121D02*
G01*
X1462024Y4481372D01*
X1473403Y4488992D01*
X1483664Y4498035D01*
X1492707Y4508296D01*
X1500327Y4519676D01*
X1503578Y4526280D01*
X1455420Y4526280D01*
G37*
G36*
X3116580Y4478121D02*
G01*
X3116580Y4526280D01*
X3068421Y4526280D01*
X3071672Y4519676D01*
X3079292Y4508296D01*
X3088335Y4498035D01*
X3098596Y4488992D01*
X3109976Y4481372D01*
G37*
G36*
X1455420Y4617720D02*
G01*
X1503578Y4617720D01*
X1500327Y4624324D01*
X1492707Y4635703D01*
X1483664Y4645964D01*
X1473403Y4655007D01*
X1462024Y4662627D01*
X1455420Y4665878D01*
G37*
G36*
X3068421Y4617720D02*
G01*
X3116580Y4617720D01*
X3116580Y4665878D01*
X3109976Y4662627D01*
X3098596Y4655007D01*
X3088335Y4645964D01*
X3079292Y4635703D01*
X3071672Y4624324D01*
G37*

%LPD*%
G36*
X1331468Y3099308D02*
G01*
X1327556Y3100070D01*
X1324305Y3102305D01*
X1322070Y3105556D01*
X1321308Y3109468D01*
X1321308Y3980230D01*
X1322019Y3984040D01*
X1324152Y3987241D01*
X1327251Y3989476D01*
X1331010Y3990390D01*
X1334820Y3989832D01*
X1338173Y3987850D01*
X1345996Y3980992D01*
X1357376Y3973372D01*
X1369669Y3967327D01*
X1382623Y3962958D01*
X1396034Y3960266D01*
X1409700Y3959351D01*
X1423365Y3960266D01*
X1436776Y3962958D01*
X1449730Y3967327D01*
X1462024Y3973372D01*
X1473403Y3980992D01*
X1483664Y3990035D01*
X1492707Y4000296D01*
X1494891Y4003598D01*
X1497177Y4005986D01*
X1500073Y4007561D01*
X1503324Y4008069D01*
X1772513Y4008069D01*
X1778000Y4007662D01*
X1787804Y4008526D01*
X1797253Y4011066D01*
X1806193Y4015181D01*
X1814220Y4020820D01*
X1821180Y4027779D01*
X1826818Y4035806D01*
X1830933Y4044746D01*
X1833473Y4054195D01*
X1834337Y4064000D01*
X1833473Y4073804D01*
X1830933Y4083253D01*
X1826818Y4092194D01*
X1821180Y4100220D01*
X1814220Y4107179D01*
X1806193Y4112818D01*
X1797253Y4116933D01*
X1787804Y4119473D01*
X1778000Y4120337D01*
X1772513Y4119930D01*
X1503324Y4119930D01*
X1500073Y4120438D01*
X1497177Y4122013D01*
X1494891Y4124401D01*
X1492707Y4127703D01*
X1483664Y4137964D01*
X1473403Y4147007D01*
X1462024Y4154627D01*
X1449730Y4160672D01*
X1436776Y4165041D01*
X1423365Y4167733D01*
X1409700Y4168648D01*
X1396034Y4167733D01*
X1382623Y4165041D01*
X1369669Y4160672D01*
X1357376Y4154627D01*
X1345996Y4147007D01*
X1338173Y4140149D01*
X1334820Y4138168D01*
X1331010Y4137609D01*
X1327251Y4138523D01*
X1324152Y4140758D01*
X1322019Y4143959D01*
X1321308Y4147769D01*
X1321308Y4234230D01*
X1322019Y4238040D01*
X1324152Y4241241D01*
X1327251Y4243476D01*
X1331010Y4244390D01*
X1334820Y4243832D01*
X1338173Y4241850D01*
X1345996Y4234992D01*
X1357376Y4227372D01*
X1369669Y4221327D01*
X1382623Y4216958D01*
X1396034Y4214266D01*
X1409700Y4213352D01*
X1423365Y4214266D01*
X1436776Y4216958D01*
X1449730Y4221327D01*
X1462024Y4227372D01*
X1473403Y4234992D01*
X1483664Y4244035D01*
X1492707Y4254296D01*
X1494891Y4257598D01*
X1497177Y4259986D01*
X1500073Y4261561D01*
X1503324Y4262069D01*
X3068675Y4262069D01*
X3071926Y4261561D01*
X3074822Y4259986D01*
X3077108Y4257598D01*
X3079292Y4254296D01*
X3088335Y4244035D01*
X3098596Y4234992D01*
X3109976Y4227372D01*
X3122269Y4221327D01*
X3135223Y4216958D01*
X3148634Y4214266D01*
X3162300Y4213352D01*
X3175965Y4214266D01*
X3189376Y4216958D01*
X3202330Y4221327D01*
X3214624Y4227372D01*
X3226003Y4234992D01*
X3233826Y4241850D01*
X3237179Y4243832D01*
X3240989Y4244390D01*
X3244748Y4243476D01*
X3247847Y4241241D01*
X3249980Y4238040D01*
X3250692Y4234230D01*
X3250692Y4147769D01*
X3249980Y4143959D01*
X3247847Y4140758D01*
X3244748Y4138523D01*
X3240989Y4137609D01*
X3237179Y4138168D01*
X3233826Y4140149D01*
X3226003Y4147007D01*
X3214624Y4154627D01*
X3202330Y4160672D01*
X3189376Y4165041D01*
X3175965Y4167733D01*
X3162300Y4168648D01*
X3148634Y4167733D01*
X3135223Y4165041D01*
X3122269Y4160672D01*
X3109976Y4154627D01*
X3098596Y4147007D01*
X3088335Y4137964D01*
X3079292Y4127703D01*
X3071672Y4116324D01*
X3065627Y4104030D01*
X3061258Y4091076D01*
X3058566Y4077665D01*
X3057652Y4064000D01*
X3058566Y4050334D01*
X3061258Y4036923D01*
X3065627Y4023969D01*
X3071672Y4011676D01*
X3079292Y4000296D01*
X3088335Y3990035D01*
X3098596Y3980992D01*
X3109976Y3973372D01*
X3122269Y3967327D01*
X3135223Y3962958D01*
X3148634Y3960266D01*
X3162300Y3959351D01*
X3175965Y3960266D01*
X3189376Y3962958D01*
X3202330Y3967327D01*
X3214624Y3973372D01*
X3226003Y3980992D01*
X3233826Y3987850D01*
X3237179Y3989832D01*
X3240989Y3990390D01*
X3244748Y3989476D01*
X3247847Y3987241D01*
X3249980Y3984040D01*
X3250692Y3980230D01*
X3250692Y3109468D01*
X3249930Y3105556D01*
X3247694Y3102305D01*
X3244443Y3100070D01*
X3240532Y3099308D01*
X2859125Y3099308D01*
X2854909Y3100222D01*
X2851454Y3102762D01*
X2849372Y3106521D01*
X2849067Y3110788D01*
X2850489Y3114852D01*
X2853486Y3117900D01*
X2857703Y3120745D01*
X2867964Y3129737D01*
X2877007Y3140049D01*
X2884627Y3151428D01*
X2890672Y3163722D01*
X2895041Y3176676D01*
X2897733Y3190087D01*
X2898648Y3204057D01*
X2898648Y3295904D01*
X2897733Y3309924D01*
X2895041Y3323336D01*
X2890672Y3336290D01*
X2884627Y3348583D01*
X2877007Y3359962D01*
X2867964Y3370224D01*
X2857703Y3379266D01*
X2846324Y3386886D01*
X2834030Y3392932D01*
X2821076Y3397300D01*
X2807665Y3399993D01*
X2794000Y3400907D01*
X2780334Y3399993D01*
X2766923Y3397300D01*
X2753969Y3392932D01*
X2741676Y3386886D01*
X2730296Y3379266D01*
X2720035Y3370224D01*
X2710992Y3359962D01*
X2703372Y3348583D01*
X2697327Y3336290D01*
X2692958Y3323336D01*
X2690266Y3309924D01*
X2689352Y3295904D01*
X2689352Y3204057D01*
X2690266Y3190087D01*
X2692958Y3176676D01*
X2697327Y3163722D01*
X2703372Y3151428D01*
X2710992Y3140049D01*
X2720035Y3129737D01*
X2730296Y3120745D01*
X2734513Y3117900D01*
X2737510Y3114852D01*
X2738932Y3110788D01*
X2738628Y3106521D01*
X2736545Y3102762D01*
X2733090Y3100222D01*
X2728874Y3099308D01*
X2605125Y3099308D01*
X2600909Y3100222D01*
X2597454Y3102762D01*
X2595372Y3106521D01*
X2595067Y3110788D01*
X2596489Y3114852D01*
X2599486Y3117900D01*
X2603703Y3120745D01*
X2613964Y3129737D01*
X2623007Y3140049D01*
X2630627Y3151428D01*
X2636672Y3163722D01*
X2641041Y3176676D01*
X2643733Y3190087D01*
X2644648Y3204057D01*
X2644648Y3295904D01*
X2643733Y3309924D01*
X2641041Y3323336D01*
X2636672Y3336290D01*
X2630627Y3348583D01*
X2623007Y3359962D01*
X2613964Y3370224D01*
X2603703Y3379266D01*
X2592324Y3386886D01*
X2580030Y3392932D01*
X2567076Y3397300D01*
X2553665Y3399993D01*
X2540000Y3400907D01*
X2526334Y3399993D01*
X2512923Y3397300D01*
X2499969Y3392932D01*
X2487676Y3386886D01*
X2476296Y3379266D01*
X2466035Y3370224D01*
X2456992Y3359962D01*
X2449372Y3348583D01*
X2443327Y3336290D01*
X2438958Y3323336D01*
X2436266Y3309924D01*
X2435352Y3295904D01*
X2435352Y3204057D01*
X2436266Y3190087D01*
X2438958Y3176676D01*
X2443327Y3163722D01*
X2449372Y3151428D01*
X2456992Y3140049D01*
X2466035Y3129737D01*
X2476296Y3120745D01*
X2480513Y3117900D01*
X2483510Y3114852D01*
X2484932Y3110788D01*
X2484628Y3106521D01*
X2482545Y3102762D01*
X2479090Y3100222D01*
X2474874Y3099308D01*
X2397252Y3099308D01*
X2393492Y3100019D01*
X2390241Y3102102D01*
X2388006Y3105251D01*
X2387142Y3109010D01*
X2387701Y3112820D01*
X2389936Y3119272D01*
X2390648Y3125571D01*
X2390648Y3374440D01*
X2389936Y3380740D01*
X2388006Y3386226D01*
X2384958Y3391103D01*
X2380843Y3395218D01*
X2375966Y3398265D01*
X2370480Y3400196D01*
X2364181Y3400907D01*
X2352090Y3400907D01*
X2348179Y3401669D01*
X2344877Y3403904D01*
X2342692Y3407156D01*
X2341930Y3411067D01*
X2341930Y3439109D01*
X2342692Y3443020D01*
X2344877Y3446322D01*
X2348179Y3448507D01*
X2352090Y3449269D01*
X2628696Y3449269D01*
X2633776Y3449523D01*
X2638602Y3450132D01*
X2643378Y3451199D01*
X2648000Y3452672D01*
X2652522Y3454552D01*
X2656840Y3456787D01*
X2660954Y3459429D01*
X2664815Y3462375D01*
X2668574Y3465829D01*
X2879344Y3676548D01*
X2881020Y3677920D01*
X2887980Y3684879D01*
X2893618Y3692906D01*
X2897733Y3701846D01*
X2900273Y3711295D01*
X2901137Y3721100D01*
X2900273Y3730904D01*
X2897733Y3740353D01*
X2893618Y3749294D01*
X2887980Y3757320D01*
X2881020Y3764279D01*
X2872994Y3769918D01*
X2864053Y3774033D01*
X2854604Y3776573D01*
X2844800Y3777437D01*
X2834995Y3776573D01*
X2825546Y3774033D01*
X2816606Y3769918D01*
X2808579Y3764279D01*
X2800248Y3755644D01*
X2608732Y3564077D01*
X2605430Y3561892D01*
X2601518Y3561130D01*
X2286457Y3561130D01*
X2276297Y3560216D01*
X2266899Y3557676D01*
X2258060Y3553561D01*
X2250084Y3547973D01*
X2243226Y3541115D01*
X2237638Y3533140D01*
X2233523Y3524300D01*
X2230983Y3514902D01*
X2230069Y3504742D01*
X2230069Y3411067D01*
X2229307Y3407156D01*
X2227122Y3403904D01*
X2223820Y3401669D01*
X2219909Y3400907D01*
X2207818Y3400907D01*
X2201519Y3400196D01*
X2196033Y3398265D01*
X2191156Y3395218D01*
X2187041Y3391103D01*
X2183993Y3386226D01*
X2182063Y3380740D01*
X2181352Y3374440D01*
X2181352Y3125571D01*
X2182063Y3119272D01*
X2184298Y3112820D01*
X2184857Y3109010D01*
X2183993Y3105251D01*
X2181758Y3102102D01*
X2178507Y3100019D01*
X2174748Y3099308D01*
X2097125Y3099308D01*
X2092909Y3100222D01*
X2089454Y3102762D01*
X2087372Y3106521D01*
X2087067Y3110788D01*
X2088489Y3114852D01*
X2091486Y3117900D01*
X2095703Y3120745D01*
X2105964Y3129737D01*
X2115007Y3140049D01*
X2122627Y3151428D01*
X2128672Y3163722D01*
X2133041Y3176676D01*
X2135733Y3190087D01*
X2136648Y3204057D01*
X2136648Y3295904D01*
X2135733Y3309924D01*
X2133041Y3323336D01*
X2128672Y3336290D01*
X2122627Y3348583D01*
X2115007Y3359962D01*
X2105964Y3370224D01*
X2095703Y3379266D01*
X2084324Y3386886D01*
X2072030Y3392932D01*
X2059076Y3397300D01*
X2045665Y3399993D01*
X2032000Y3400907D01*
X2018334Y3399993D01*
X2004923Y3397300D01*
X1991969Y3392932D01*
X1979675Y3386886D01*
X1968296Y3379266D01*
X1958035Y3370224D01*
X1948992Y3359962D01*
X1941372Y3348583D01*
X1935327Y3336290D01*
X1930958Y3323336D01*
X1928266Y3309924D01*
X1927352Y3295904D01*
X1927352Y3204057D01*
X1928266Y3190087D01*
X1930958Y3176676D01*
X1935327Y3163722D01*
X1941372Y3151428D01*
X1948992Y3140049D01*
X1958035Y3129737D01*
X1968296Y3120745D01*
X1972513Y3117900D01*
X1975510Y3114852D01*
X1976932Y3110788D01*
X1976628Y3106521D01*
X1974545Y3102762D01*
X1971090Y3100222D01*
X1966874Y3099308D01*
X1843125Y3099308D01*
X1838909Y3100222D01*
X1835454Y3102762D01*
X1833372Y3106521D01*
X1833067Y3110788D01*
X1834489Y3114852D01*
X1837486Y3117900D01*
X1841703Y3120745D01*
X1851964Y3129737D01*
X1861007Y3140049D01*
X1868627Y3151428D01*
X1874672Y3163722D01*
X1879041Y3176676D01*
X1881733Y3190087D01*
X1882648Y3204057D01*
X1882648Y3295904D01*
X1881733Y3309924D01*
X1879041Y3323336D01*
X1874672Y3336290D01*
X1868627Y3348583D01*
X1861007Y3359962D01*
X1851964Y3370224D01*
X1841703Y3379266D01*
X1830324Y3386886D01*
X1818030Y3392932D01*
X1805076Y3397300D01*
X1791665Y3399993D01*
X1778000Y3400907D01*
X1764334Y3399993D01*
X1750923Y3397300D01*
X1737969Y3392932D01*
X1725675Y3386886D01*
X1714296Y3379266D01*
X1704035Y3370224D01*
X1694992Y3359962D01*
X1687372Y3348583D01*
X1681327Y3336290D01*
X1676958Y3323336D01*
X1674266Y3309924D01*
X1673352Y3295904D01*
X1673352Y3204057D01*
X1674266Y3190087D01*
X1676958Y3176676D01*
X1681327Y3163722D01*
X1687372Y3151428D01*
X1694992Y3140049D01*
X1704035Y3129737D01*
X1714296Y3120745D01*
X1718513Y3117900D01*
X1721510Y3114852D01*
X1722932Y3110788D01*
X1722628Y3106521D01*
X1720545Y3102762D01*
X1717090Y3100222D01*
X1712874Y3099308D01*
G37*

%LPD*%
D11*
X2844800Y3721100D02*
G01*
X2628900Y3505200D01*
X2286000Y3505200D01*
X2286000Y3302000D01*
X1765300Y5283200D02*
G01*
X1765300Y5397500D01*
X2095500Y5397500D01*
X2286000Y5588000D01*
X3162300Y4318000D02*
G01*
X1409700Y4318000D01*
D22*
X3162300Y4826000D02*
G01*
X1409700Y4826000D01*
D11*
X1778000Y4064000D02*
G01*
X1409700Y4064000D01*
X2717800Y4445000D02*
G01*
X2032000Y4445000D01*
X3162300Y4572000D02*
G01*
X1409700Y4572000D01*
G36*
X2207259Y3374999D02*
G01*
X2364740Y3374999D01*
X2364740Y3125000D01*
X2207259Y3125000D01*
G37*
G36*
X2207259Y5764999D02*
G01*
X2364740Y5764999D01*
X2364740Y5514997D01*
X2207259Y5514997D01*
G37*
G36*
X1330960Y4904739D02*
G01*
X1330960Y4747260D01*
X1488439Y4747260D01*
X1488439Y4904739D01*
G37*
D21*
G01*
X1409700Y4572000D03*
G01*
X1409700Y4318000D03*
G01*
X1409700Y4064000D03*
G36*
X3083559Y4904739D02*
G01*
X3083559Y4747260D01*
X3241040Y4747260D01*
X3241040Y4904739D01*
G37*
G01*
X3162300Y4572000D03*
G01*
X3162300Y4318000D03*
G01*
X3162300Y4064000D03*
D13*
G01*
X2844800Y3721100D03*
G01*
X1765300Y5283200D03*
G01*
X1905000Y4832222D03*
G01*
X1778000Y4064000D03*
G01*
X2717800Y4445000D03*
G01*
X2032000Y4445000D03*
G01*
X2603500Y4572000D03*
G01*
X1778000Y4445000D03*
G01*
X1473200Y5080000D03*
G01*
X1435100Y3848100D03*
G01*
X3022600Y3543300D03*
G01*
X2921000Y5207000D03*
G01*
X1854200Y3822700D03*
D21*
X2794000Y3296264D02*
G01*
X2794000Y3203745D01*
X2540000Y3296264D02*
G01*
X2540000Y3203745D01*
X2032000Y3296264D02*
G01*
X2032000Y3203745D01*
X1778000Y3296264D02*
G01*
X1778000Y3203745D01*
X2794000Y5686252D02*
G01*
X2794000Y5593732D01*
X2540000Y5686252D02*
G01*
X2540000Y5593732D01*
X2032000Y5686252D02*
G01*
X2032000Y5593732D01*
X1778000Y5686252D02*
G01*
X1778000Y5593732D01*
M02*
